<?xml version="1.0" encoding="utf-8"?>
<!-- Generator: Adobe Illustrator 16.0.0, SVG Export Plug-In . SVG Version: 6.00 Build 0)  -->
<!DOCTYPE svg PUBLIC "-//W3C//DTD SVG 1.1//EN" "http://www.w3.org/Graphics/SVG/1.1/DTD/svg11.dtd">
<svg version="1.1" id="Layer_1" xmlns="http://www.w3.org/2000/svg" xmlns:xlink="http://www.w3.org/1999/xlink" x="0px" y="0px"
	 width="24px" height="24px" viewBox="0 0 24 24" enable-background="new 0 0 24 24" xml:space="preserve">
<circle fill="#F7F5EB" cx="12" cy="12.001" r="10"/>
<path fill="#A0A09B" d="M12,11.375c2.209,0,4-1.791,4-4c0-2.209-1.79-4-4-4s-4,1.791-4,4C8,9.584,9.791,11.375,12,11.375z"/>
<path fill="#A0A09B" d="M19.768,15.457c-4.501-3.776-11.036-3.776-15.535,0C4.085,15.58,4,15.762,4,15.955c0,0.644,0,2.2,0,3.34
	c0,0.735,0.598,1.33,1.333,1.33h13.334c0.735,0,1.333-0.595,1.333-1.33v-3.079C20,15.762,19.915,15.58,19.768,15.457z"/>
</svg>
