<?xml version="1.0" encoding="utf-8"?>
<!-- Generator: Adobe Illustrator 16.0.0, SVG Export Plug-In . SVG Version: 6.00 Build 0)  -->
<!DOCTYPE svg PUBLIC "-//W3C//DTD SVG 1.1//EN" "http://www.w3.org/Graphics/SVG/1.1/DTD/svg11.dtd">
<svg version="1.1" id="Layer_1" xmlns="http://www.w3.org/2000/svg" xmlns:xlink="http://www.w3.org/1999/xlink" x="0px" y="0px"
	 width="24px" height="24px" viewBox="-82.5 102.5 24 24" enable-background="new -82.5 102.5 24 24" xml:space="preserve">
<circle fill="#F7F5EB" cx="-70.5" cy="114.5" r="10"/>
<path fill="#A0A09B" d="M-64.858,117.155l-2.471-2.478c-0.492-0.49-1.307-0.476-1.817,0.035l-1.245,1.247
	c-0.079-0.044-0.16-0.089-0.246-0.137c-0.786-0.437-1.862-1.035-2.994-2.171c-1.136-1.138-1.733-2.218-2.17-3.006
	c-0.046-0.084-0.09-0.164-0.134-0.24l0.835-0.837l0.411-0.412c0.51-0.511,0.524-1.328,0.033-1.821l-2.471-2.477
	c-0.491-0.492-1.307-0.477-1.816,0.034l-0.696,0.702l0.019,0.02c-0.234,0.298-0.429,0.643-0.574,1.014
	c-0.134,0.354-0.217,0.691-0.255,1.029c-0.327,2.711,0.909,5.188,4.264,8.551c4.637,4.646,8.373,4.296,8.535,4.279
	c0.351-0.043,0.688-0.127,1.029-0.26c0.368-0.145,0.711-0.339,1.009-0.572l0.015,0.014l0.707-0.693
	C-64.382,118.466-64.368,117.648-64.858,117.155z"/>
</svg>
