<?xml version="1.0" encoding="utf-8"?>
<!-- Generator: Adobe Illustrator 16.0.0, SVG Export Plug-In . SVG Version: 6.00 Build 0)  -->
<!DOCTYPE svg PUBLIC "-//W3C//DTD SVG 1.1//EN" "http://www.w3.org/Graphics/SVG/1.1/DTD/svg11.dtd">
<svg version="1.1" id="Layer_1" xmlns="http://www.w3.org/2000/svg" xmlns:xlink="http://www.w3.org/1999/xlink" x="0px" y="0px"
	 width="25px" height="25px" viewBox="0 0 25 25" enable-background="new 0 0 25 25" xml:space="preserve">
<path fill="#A0A09B" d="M12.5,0C5.597,0,0,5.597,0,12.5C0,19.404,5.597,25,12.5,25C19.404,25,25,19.404,25,12.5
	C25,5.597,19.404,0,12.5,0z M19.66,17.98l-2.189,0.031c0,0-0.473,0.094-1.093-0.332c-0.819-0.563-1.593-2.025-2.196-1.834
	c-0.611,0.192-0.592,1.51-0.592,1.51s0.006,0.281-0.134,0.431c-0.151,0.163-0.448,0.194-0.448,0.194h-0.98
	c0,0-2.165,0.131-4.071-1.853c-2.079-2.165-3.915-6.46-3.915-6.46S3.937,9.387,4.051,9.25C4.18,9.097,4.532,9.087,4.532,9.087
	l2.345-0.016c0,0,0.222,0.038,0.38,0.154C7.387,9.32,7.46,9.5,7.46,9.5s0.379,0.958,0.881,1.827c0.98,1.692,1.436,2.063,1.768,1.881
	c0.486-0.265,0.34-2.394,0.34-2.394s0.009-0.772-0.244-1.116C10.009,9.432,9.64,9.354,9.476,9.332
	C9.344,9.314,9.561,9.008,9.841,8.87c0.423-0.206,1.168-0.219,2.049-0.209c0.685,0.007,0.883,0.05,1.151,0.114
	c0.809,0.195,0.535,0.95,0.535,2.758c0,0.579-0.105,1.394,0.313,1.664c0.18,0.115,0.619,0.017,1.719-1.849
	c0.521-0.885,0.912-1.925,0.912-1.925s0.084-0.186,0.219-0.265c0.134-0.081,0.316-0.056,0.316-0.056l2.469-0.016
	c0,0,0.742-0.089,0.861,0.246c0.125,0.352-0.277,1.172-1.285,2.516c-1.656,2.207-1.84,2-0.466,3.275
	c1.313,1.221,1.585,1.813,1.63,1.886C20.807,17.912,19.66,17.98,19.66,17.98z"/>
</svg>
