<?xml version="1.0" encoding="utf-8"?>
<!-- Generator: Adobe Illustrator 16.0.0, SVG Export Plug-In . SVG Version: 6.00 Build 0)  -->
<!DOCTYPE svg PUBLIC "-//W3C//DTD SVG 1.1//EN" "http://www.w3.org/Graphics/SVG/1.1/DTD/svg11.dtd">
<svg version="1.1" id="Layer_1" xmlns="http://www.w3.org/2000/svg" xmlns:xlink="http://www.w3.org/1999/xlink" x="0px" y="0px"
	 width="140px" height="140px" viewBox="0 0 140 140" enable-background="new 0 0 140 140" xml:space="preserve">
<circle opacity="0.5" fill="#FFFFFF" enable-background="new    " cx="70" cy="70" r="70"/>
<circle opacity="0.1" fill="#878787" enable-background="new    " cx="70" cy="70" r="58.508"/>
<circle opacity="0.1" fill="#878787" enable-background="new    " cx="70" cy="70" r="47.015"/>
<circle cx="70" cy="70" r="35"/>
<path fill="#FFFFFF" d="M83.102,80.748l-4.098-5.512c-0.817-1.094-2.407-1.299-3.543-0.453l-2.777,2.064
	c-0.141-0.107-0.285-0.219-0.438-0.336c-1.404-1.072-3.326-2.541-5.204-5.068c-1.884-2.533-2.738-4.799-3.362-6.454
	c-0.066-0.175-0.129-0.344-0.192-0.505l1.863-1.383l0.917-0.683c1.138-0.846,1.398-2.427,0.584-3.523l-4.099-5.513
	c-0.814-1.095-2.404-1.299-3.542-0.453l-1.555,1.163l0.032,0.042c-0.54,0.513-1.017,1.125-1.405,1.805
	c-0.361,0.647-0.62,1.278-0.79,1.923c-1.408,5.167,0.289,10.328,5.853,17.812c7.691,10.342,15.059,10.73,15.377,10.742
	c0.694,0.02,1.373-0.047,2.076-0.208c0.755-0.174,1.479-0.454,2.125-0.823l0.025,0.031l1.569-1.143
	C83.654,83.428,83.916,81.847,83.102,80.748z"/>
</svg>
