<?xml version="1.0" encoding="utf-8"?>
<!-- Generator: Adobe Illustrator 16.0.0, SVG Export Plug-In . SVG Version: 6.00 Build 0)  -->
<!DOCTYPE svg PUBLIC "-//W3C//DTD SVG 1.1//EN" "http://www.w3.org/Graphics/SVG/1.1/DTD/svg11.dtd">
<svg version="1.1" id="Layer_1" xmlns="http://www.w3.org/2000/svg" xmlns:xlink="http://www.w3.org/1999/xlink" x="0px" y="0px"
	 width="20px" height="20px" viewBox="0 0 20 20" enable-background="new 0 0 20 20" xml:space="preserve">
<g>
	<circle fill="#94CD1B" cx="10" cy="10" r="10"/>
</g>
<path fill="#FFFFFF" d="M3.049,12V8c0-0.16,0-0.32,0-0.48L6.417,12h0.624V6.4H6.369v3.992c0,0.16,0,0.319,0,0.479L3,6.4H2.376V12
	H3.049z M8.016,10.08c0,1.367,0.992,2.016,2.129,2.016c0.504,0,1.008-0.096,1.359-0.279v-0.625
	c-0.328,0.186-0.793,0.313-1.266,0.313c-0.775,0-1.504-0.336-1.584-1.144h3.057c0.24-1.088-0.303-2.297-1.783-2.297
	C9.016,8.064,8.016,8.736,8.016,10.08z M11.145,9.8H8.656c0.048-0.752,0.656-1.144,1.312-1.144
	C10.943,8.656,11.199,9.393,11.145,9.8z M17.545,8.16l-0.992,3.136L15.457,8.16h-0.576l-1.096,3.136L12.793,8.16h-0.672L13.434,12
	h0.695l1.039-2.968L16.209,12h0.695l1.313-3.84H17.545z"/>
</svg>
