<svg width="15" height="15" viewBox="0 0 15 15" fill="none" xmlns="http://www.w3.org/2000/svg">
<path d="M7.50033 0C3.35845 0 0 3.35779 0 7.5C0 11.6422 3.35812 15 7.50033 15C11.6429 15 15.0007 11.6422 15.0007 7.5C15.0007 3.35779 11.6429 0 7.50033 0ZM7.50033 2.24259C8.87085 2.24259 9.98144 3.3535 9.98144 4.72337C9.98144 6.09356 8.87085 7.20415 7.50033 7.20415C6.13046 7.20415 5.01988 6.09356 5.01988 4.72337C5.01988 3.3535 6.13046 2.24259 7.50033 2.24259ZM7.49868 13.0391C6.13178 13.0391 4.87986 12.5413 3.91423 11.7173C3.679 11.5167 3.54327 11.2225 3.54327 10.9138C3.54327 9.52449 4.66769 8.41259 6.05732 8.41259H8.94399C10.334 8.41259 11.4541 9.52449 11.4541 10.9138C11.4541 11.2228 11.319 11.5164 11.0835 11.717C10.1182 12.5413 8.86591 13.0391 7.49868 13.0391Z" fill="#292925"/>
</svg>
