<?xml version="1.0" encoding="utf-8"?>
<!-- Generator: Adobe Illustrator 16.0.0, SVG Export Plug-In . SVG Version: 6.00 Build 0)  -->
<!DOCTYPE svg PUBLIC "-//W3C//DTD SVG 1.1//EN" "http://www.w3.org/Graphics/SVG/1.1/DTD/svg11.dtd">
<svg version="1.1" id="Layer_1" xmlns="http://www.w3.org/2000/svg" xmlns:xlink="http://www.w3.org/1999/xlink" x="0px" y="0px"
	 width="24px" height="24px" viewBox="-82.5 102.5 24 24" enable-background="new -82.5 102.5 24 24" xml:space="preserve">
<circle fill="#F7F5EB" cx="-70.5" cy="114.5" r="10"/>
<path fill="#A0A09B" d="M-60.507,116.925v-2.319c0-0.88-0.707-1.588-1.588-1.588l-1.098-0.173l-1.881-2.833
	c-0.027-0.021-0.049-0.074-0.076-0.097c-0.291-0.39-0.756-0.659-1.297-0.659h-3.566v-0.987c0-0.5-0.372-0.907-0.832-0.907h-9.621
	c-0.46,0-0.832,0.407-0.832,0.907v6.2v3.363v0.217v0.93c0,0.514,0.416,0.902,0.903,0.902h1.297c0.292,1.027,1.221,1.758,2.345,1.758
	c1.125,0,2.054-0.758,2.346-1.758h2.957h5.032c0.292,1.027,1.221,1.758,2.346,1.758c1.124,0,2.053-0.758,2.346-1.758h1.123
	c0.514,0,0.903-0.416,0.903-0.902v-1.146C-59.702,117.363-60.069,116.974-60.507,116.925z M-76.753,120.417
	c-0.686,0-1.221-0.562-1.221-1.222c0-0.659,0.562-1.221,1.221-1.221c0.686,0,1.222,0.562,1.222,1.221
	C-75.532,119.855-76.067,120.417-76.753,120.417z M-68.34,112.938c-0.062,0-0.114-0.049-0.114-0.115v-2.244
	c0-0.062,0.048-0.114,0.114-0.114h1.938c0.04,0,0.075,0.018,0.094,0.048l1.508,2.244c0.049,0.076-0.004,0.178-0.092,0.178h-3.448
	V112.938z M-64.074,120.417c-0.686,0-1.222-0.562-1.222-1.222c0-0.659,0.562-1.221,1.222-1.221c0.686,0,1.221,0.562,1.221,1.221
	C-62.853,119.855-63.415,120.417-64.074,120.417z"/>
</svg>
