<?xml version="1.0" encoding="utf-8"?>
<!-- Generator: Adobe Illustrator 16.0.0, SVG Export Plug-In . SVG Version: 6.00 Build 0)  -->
<!DOCTYPE svg PUBLIC "-//W3C//DTD SVG 1.1//EN" "http://www.w3.org/Graphics/SVG/1.1/DTD/svg11.dtd">
<svg version="1.1" id="Layer_1" xmlns="http://www.w3.org/2000/svg" xmlns:xlink="http://www.w3.org/1999/xlink" x="0px" y="0px"
	 width="15px" height="15px" viewBox="0 0 15 15" enable-background="new 0 0 15 15" xml:space="preserve">
<path fill="#A0A09B" d="M7.5,0C3.358,0,0,3.358,0,7.5C0,11.643,3.358,15,7.5,15c4.143,0,7.5-3.357,7.5-7.5C15,3.358,11.643,0,7.5,0z
	 M11.797,10.789l-1.314,0.019c0,0-0.283,0.056-0.655-0.199C9.336,10.271,8.871,9.393,8.51,9.508
	c-0.366,0.115-0.355,0.906-0.355,0.906s0.004,0.168-0.08,0.258c-0.091,0.098-0.269,0.117-0.269,0.117H7.217
	c0,0-1.299,0.078-2.443-1.112C3.527,8.378,2.425,5.801,2.425,5.801S2.362,5.632,2.431,5.55c0.078-0.092,0.289-0.098,0.289-0.098
	l1.407-0.009c0,0,0.133,0.022,0.228,0.092C4.432,5.592,4.476,5.7,4.476,5.7s0.228,0.575,0.529,1.096
	c0.588,1.016,0.861,1.238,1.061,1.129C6.357,7.766,6.27,6.488,6.27,6.488s0.005-0.463-0.146-0.67
	c-0.117-0.16-0.339-0.207-0.437-0.22C5.607,5.588,5.737,5.404,5.905,5.322C6.159,5.198,6.606,5.19,7.134,5.196
	c0.412,0.004,0.53,0.03,0.691,0.068c0.485,0.117,0.321,0.57,0.321,1.655c0,0.347-0.063,0.836,0.188,0.999
	c0.107,0.069,0.371,0.01,1.031-1.109c0.313-0.531,0.547-1.155,0.547-1.155s0.051-0.111,0.131-0.159
	c0.081-0.049,0.19-0.034,0.19-0.034l1.481-0.009c0,0,0.444-0.053,0.517,0.147c0.075,0.211-0.167,0.703-0.771,1.51
	c-0.993,1.324-1.104,1.199-0.279,1.965c0.788,0.732,0.951,1.088,0.978,1.132C12.484,10.747,11.797,10.789,11.797,10.789z"/>
</svg>
