<?xml version="1.0" encoding="utf-8"?>
<!-- Generator: Adobe Illustrator 16.0.0, SVG Export Plug-In . SVG Version: 6.00 Build 0)  -->
<!DOCTYPE svg PUBLIC "-//W3C//DTD SVG 1.1//EN" "http://www.w3.org/Graphics/SVG/1.1/DTD/svg11.dtd">
<svg version="1.1" id="Layer_1" xmlns="http://www.w3.org/2000/svg" xmlns:xlink="http://www.w3.org/1999/xlink" x="0px" y="0px"
	 width="25px" height="25px" viewBox="0 0 25 25" enable-background="new 0 0 25 25" xml:space="preserve">
<path fill="#A0A09B" d="M12.5,0C5.597,0,0,5.597,0,12.5C0,19.404,5.597,25,12.5,25C19.404,25,25,19.404,25,12.5
	C25,5.597,19.404,0,12.5,0z M17.269,6.366l-1.729,0c-1.357,0-1.617,0.645-1.617,1.589v2.085h3.232l-0.002,3.264h-3.23v8.378H10.55
	v-8.378H7.731v-3.264h2.819V7.633c0-2.794,1.708-4.316,4.199-4.316l2.52,0.003V6.366L17.269,6.366z"/>
</svg>
