<?xml version="1.0" encoding="utf-8"?>
<!-- Generator: Adobe Illustrator 16.0.0, SVG Export Plug-In . SVG Version: 6.00 Build 0)  -->
<!DOCTYPE svg PUBLIC "-//W3C//DTD SVG 1.1//EN" "http://www.w3.org/Graphics/SVG/1.1/DTD/svg11.dtd">
<svg version="1.1" id="Layer_1" xmlns="http://www.w3.org/2000/svg" xmlns:xlink="http://www.w3.org/1999/xlink" x="0px" y="0px"
	 width="82px" height="220px" viewBox="0 0 82 220" enable-background="new 0 0 82 220" xml:space="preserve">
<circle opacity="0.05" fill="#F3392D" enable-background="new    " cx="41" cy="179" r="41"/>
<circle opacity="0.05" fill="#F3392D" enable-background="new    " cx="41" cy="179" r="33"/>
<circle fill="#F3392D" cx="41" cy="179" r="25"/>
<path fill="#FFFFFF" d="M50.358,186.678l-2.927-3.938c-0.584-0.781-1.719-0.928-2.531-0.323l-1.983,1.474
	c-0.101-0.076-0.204-0.156-0.313-0.24c-1.003-0.766-2.375-1.814-3.717-3.619c-1.345-1.809-1.955-3.428-2.401-4.61
	c-0.047-0.125-0.092-0.246-0.137-0.36l1.331-0.988l0.655-0.487c0.813-0.604,0.999-1.733,0.417-2.517l-2.928-3.938
	c-0.582-0.782-1.717-0.928-2.53-0.323l-1.11,0.83l0.022,0.03c-0.385,0.366-0.727,0.804-1.004,1.289
	c-0.258,0.463-0.442,0.913-0.564,1.374c-1.006,3.691,0.207,7.377,4.181,12.723c5.494,7.387,10.757,7.664,10.983,7.674
	c0.497,0.014,0.981-0.035,1.483-0.149c0.54-0.124,1.057-0.325,1.519-0.589l0.018,0.023l1.121-0.816
	C50.753,188.591,50.939,187.462,50.358,186.678z"/>
<path fill="#FCF2F2" d="M28.5,5c0-2.761,2.239-5,5-5h15c2.762,0,5,2.239,5,5v102.654c0,1.486-0.662,2.896-1.805,3.845l-7.152,5.942
	c-1.801,1.496-4.397,1.543-6.25,0.113l-7.847-6.054c-1.227-0.946-1.946-2.409-1.946-3.959V5z"/>
<path fill="#F3392D" d="M43.5,93.291v0.889h-6.348v3.569H43.5v0.898h-7.139v-5.356H43.5z M43.598,89.175
	c0,0.804-0.242,1.436-0.728,1.895c-0.488,0.456-1.159,0.684-2.012,0.684c-0.859,0-1.543-0.213-2.051-0.64
	c-0.511-0.426-0.767-1.002-0.767-1.729c0-0.674,0.218-1.211,0.654-1.611c0.433-0.4,1.021-0.601,1.763-0.601h0.532v3.672
	c0.609-0.016,1.07-0.171,1.387-0.464s0.474-0.708,0.474-1.245c0-0.286-0.024-0.558-0.073-0.815
	c-0.053-0.257-0.151-0.558-0.298-0.903h0.771c0.127,0.296,0.216,0.575,0.269,0.835C43.572,88.513,43.598,88.82,43.598,89.175z
	 M38.759,89.395c0,0.42,0.135,0.752,0.405,0.996s0.646,0.389,1.128,0.435v-2.729c-0.501,0.007-0.882,0.122-1.143,0.347
	S38.759,88.984,38.759,89.395z M43.598,83.271c0,0.719-0.259,1.273-0.776,1.66v0.059l0.2-0.02c0.254-0.026,0.48-0.039,0.679-0.039
	h2.202v0.879h-7.764v-0.723l0.732-0.117v-0.039c-0.293-0.208-0.504-0.449-0.635-0.723s-0.195-0.589-0.195-0.947
	c0-0.697,0.243-1.237,0.728-1.621c0.482-0.387,1.162-0.581,2.041-0.581c0.876,0,1.56,0.194,2.051,0.581S43.598,82.572,43.598,83.271
	z M38.778,83.418c0,0.531,0.15,0.915,0.449,1.152c0.299,0.234,0.77,0.355,1.411,0.361h0.171c0.726,0,1.251-0.121,1.577-0.361
	c0.322-0.241,0.483-0.631,0.483-1.172c0-0.449-0.183-0.799-0.547-1.05c-0.364-0.254-0.873-0.381-1.523-0.381
	c-0.654,0-1.154,0.127-1.499,0.381C38.953,82.6,38.778,82.956,38.778,83.418z M43.598,77.378c0,0.804-0.242,1.436-0.728,1.895
	c-0.488,0.456-1.159,0.684-2.012,0.684c-0.859,0-1.543-0.213-2.051-0.64c-0.511-0.426-0.767-1.002-0.767-1.729
	c0-0.674,0.218-1.211,0.654-1.611c0.433-0.4,1.021-0.601,1.763-0.601h0.532v3.672c0.609-0.016,1.07-0.171,1.387-0.464
	s0.474-0.708,0.474-1.245c0-0.286-0.024-0.558-0.073-0.815c-0.053-0.257-0.151-0.558-0.298-0.903h0.771
	c0.127,0.296,0.216,0.575,0.269,0.835S43.598,77.023,43.598,77.378z M38.759,77.598c0,0.42,0.135,0.752,0.405,0.996
	s0.646,0.389,1.128,0.435v-2.729c-0.501,0.007-0.882,0.122-1.143,0.347S38.759,77.188,38.759,77.598z M40.351,72.954
	c0-1.012-0.273-1.519-0.82-1.519c-0.508,0-0.762,0.405-0.762,1.216c0,0.257,0.024,0.497,0.073,0.718s0.138,0.487,0.269,0.796
	l-0.698,0.308c-0.248-0.557-0.371-1.18-0.371-1.87c0-0.628,0.125-1.12,0.376-1.475c0.25-0.354,0.596-0.532,1.035-0.532
	c0.609,0,1.004,0.335,1.187,1.006h0.039c0.117-0.407,0.287-0.706,0.508-0.898c0.221-0.192,0.5-0.288,0.835-0.288
	c0.491,0,0.878,0.204,1.157,0.61s0.42,0.967,0.42,1.68c0,0.788-0.115,1.396-0.347,1.826H42.46c0.28-0.596,0.42-1.201,0.42-1.816
	c0-0.459-0.077-0.812-0.229-1.06c-0.152-0.247-0.379-0.371-0.679-0.371c-0.306,0-0.532,0.125-0.679,0.376
	c-0.15,0.251-0.225,0.635-0.225,1.152v0.723h-0.718V72.954z M39.491,64.702c0.345,0,0.609,0.098,0.791,0.293
	c0.179,0.195,0.301,0.474,0.366,0.835h0.044c0.062-0.453,0.197-0.781,0.405-0.986c0.205-0.208,0.482-0.313,0.83-0.313
	c0.508,0,0.896,0.188,1.167,0.562C43.365,65.464,43.5,66,43.5,66.699v2.412h-5.361v-2.402
	C38.139,65.371,38.589,64.702,39.491,64.702z M41.879,65.41c-0.299,0-0.509,0.117-0.63,0.352s-0.181,0.578-0.181,1.03v1.44h1.724
	v-1.46C42.792,65.864,42.488,65.41,41.879,65.41z M39.569,65.562c-0.25,0-0.43,0.098-0.537,0.293
	c-0.107,0.192-0.161,0.483-0.161,0.874v1.504h1.47V66.89c0-0.479-0.059-0.818-0.176-1.021
	C40.044,65.664,39.846,65.562,39.569,65.562z M40.81,58.691c0.876,0,1.56,0.222,2.051,0.664c0.491,0.443,0.737,1.055,0.737,1.836
	c0,0.485-0.112,0.915-0.337,1.289c-0.228,0.375-0.554,0.663-0.977,0.864c-0.423,0.202-0.915,0.303-1.475,0.303
	c-0.873,0-1.551-0.218-2.036-0.654c-0.488-0.436-0.732-1.048-0.732-1.836c0-0.755,0.249-1.354,0.747-1.797
	C39.283,58.915,39.957,58.691,40.81,58.691z M40.81,62.739c0.674,0,1.187-0.132,1.538-0.396c0.348-0.267,0.522-0.659,0.522-1.177
	c0-0.511-0.175-0.9-0.522-1.167c-0.352-0.267-0.864-0.4-1.538-0.4s-1.18,0.135-1.519,0.405c-0.342,0.267-0.513,0.659-0.513,1.177
	C38.778,62.22,39.456,62.739,40.81,62.739z M38.139,56.416h2.231v-2.91h-2.231v-0.879H43.5v0.879h-2.388v2.91H43.5v0.879h-5.361
	V56.416z M38.139,50.088h3.271l0.947,0.039l0.273,0.02l-4.492-2.871v-1.079H43.5v0.82h-3.159l-0.679-0.015l-0.645-0.024l4.482,2.852
	v1.089h-5.361V50.088z M38.881,40.781v1.753H43.5v0.869h-4.619v1.729h-0.742v-4.351H38.881z M43.598,37.485
	c0,0.804-0.242,1.436-0.728,1.895c-0.488,0.456-1.159,0.684-2.012,0.684c-0.859,0-1.543-0.213-2.051-0.64
	c-0.511-0.426-0.767-1.002-0.767-1.729c0-0.674,0.218-1.211,0.654-1.611c0.433-0.4,1.021-0.601,1.763-0.601h0.532v3.672
	c0.609-0.016,1.07-0.171,1.387-0.464s0.474-0.708,0.474-1.245c0-0.286-0.024-0.558-0.073-0.815
	c-0.053-0.257-0.151-0.558-0.298-0.903h0.771c0.127,0.296,0.216,0.575,0.269,0.835C43.572,36.823,43.598,37.131,43.598,37.485z
	 M38.759,37.705c0,0.42,0.135,0.752,0.405,0.996s0.646,0.389,1.128,0.435v-2.729c-0.501,0.007-0.882,0.122-1.143,0.347
	S38.759,37.295,38.759,37.705z M42.66,28.525c-0.355-0.098-0.721-0.221-1.099-0.371l-3.423-1.396v-1.133H43.5v0.791h-4.419
	c0.355,0.114,0.728,0.248,1.118,0.4l3.301,1.338v0.713l-3.32,1.338c-0.156,0.065-0.327,0.13-0.513,0.195
	c-0.186,0.062-0.381,0.124-0.586,0.186H43.5v0.791h-5.361v-1.099l3.291-1.353C41.736,28.806,42.146,28.672,42.66,28.525z
	 M38.139,23.037h2.231v-2.91h-2.231v-0.879H43.5v0.879h-2.388v2.91H43.5v0.879h-5.361V23.037z M43.598,15.259
	c0,0.804-0.242,1.436-0.728,1.895c-0.488,0.456-1.159,0.684-2.012,0.684c-0.859,0-1.543-0.213-2.051-0.64
	c-0.511-0.426-0.767-1.002-0.767-1.729c0-0.674,0.218-1.211,0.654-1.611c0.433-0.4,1.021-0.601,1.763-0.601h0.532v3.672
	c0.609-0.016,1.07-0.171,1.387-0.464s0.474-0.708,0.474-1.245c0-0.286-0.024-0.558-0.073-0.815
	c-0.053-0.257-0.151-0.558-0.298-0.903h0.771c0.127,0.296,0.216,0.575,0.269,0.835C43.572,14.597,43.598,14.904,43.598,15.259z
	 M38.759,15.479c0,0.42,0.135,0.752,0.405,0.996s0.646,0.389,1.128,0.435V14.18c-0.501,0.006-0.882,0.122-1.143,0.347
	S38.759,15.068,38.759,15.479z"/>
</svg>
