<?xml version="1.0" encoding="utf-8"?>
<!-- Generator: Adobe Illustrator 16.0.0, SVG Export Plug-In . SVG Version: 6.00 Build 0)  -->
<!DOCTYPE svg PUBLIC "-//W3C//DTD SVG 1.1//EN" "http://www.w3.org/Graphics/SVG/1.1/DTD/svg11.dtd">
<svg version="1.1" id="Layer_1" xmlns="http://www.w3.org/2000/svg" xmlns:xlink="http://www.w3.org/1999/xlink" x="0px" y="0px"
	 width="12px" height="12px" viewBox="0 0 12 12" enable-background="new 0 0 12 12" xml:space="preserve">
<path fill="#F3392D" d="M11.731,9.492L9.877,7.634C9.51,7.266,8.897,7.276,8.517,7.659L7.582,8.595
	C7.524,8.563,7.463,8.528,7.398,8.492c-0.59-0.328-1.397-0.776-2.246-1.628C4.3,6.011,3.853,5.2,3.525,4.609
	C3.49,4.545,3.458,4.485,3.423,4.429l0.627-0.627l0.308-0.309c0.383-0.383,0.394-0.995,0.025-1.365L2.531,0.27
	C2.164-0.099,1.552-0.088,1.169,0.294L0.646,0.821l0.015,0.015C0.485,1.06,0.338,1.318,0.229,1.596
	c-0.1,0.267-0.162,0.519-0.191,0.772C-0.206,4.402,0.72,6.259,3.236,8.781c3.478,3.484,6.282,3.223,6.401,3.21
	c0.263-0.032,0.516-0.096,0.773-0.196c0.273-0.107,0.531-0.254,0.754-0.43l0.014,0.01l0.528-0.519
	C12.088,10.474,12.099,9.86,11.731,9.492z"/>
</svg>
