<?xml version="1.0" encoding="utf-8"?>
<!-- Generator: Adobe Illustrator 16.0.0, SVG Export Plug-In . SVG Version: 6.00 Build 0)  -->
<!DOCTYPE svg PUBLIC "-//W3C//DTD SVG 1.1//EN" "http://www.w3.org/Graphics/SVG/1.1/DTD/svg11.dtd">
<svg version="1.1" id="Layer_1" xmlns="http://www.w3.org/2000/svg" xmlns:xlink="http://www.w3.org/1999/xlink" x="0px" y="0px"
	 width="24px" height="24px" viewBox="-82.5 102.5 24 24" enable-background="new -82.5 102.5 24 24" xml:space="preserve">
<circle fill="#F7F5EB" cx="-70.5" cy="114.5" r="10"/>
<path fill="#A0A09B" d="M-81.068,108.253h18.128c0.239,0,0.432,0.193,0.432,0.432v1.451h-16.414c-0.477,0-0.863,0.386-0.863,0.862
	v6.572h-1.283c-0.238,0-0.432-0.192-0.432-0.431v-8.455C-81.5,108.446-81.307,108.253-81.068,108.253z"/>
<path fill="#A0A09B" d="M-78.06,111.43h18.128c0.238,0,0.432,0.193,0.432,0.431v8.455c0,0.238-0.193,0.432-0.432,0.432H-78.06
	c-0.238,0-0.432-0.193-0.432-0.432v-8.455C-78.491,111.623-78.298,111.43-78.06,111.43z M-62.923,116.581
	c0,0.358,0.29,0.647,0.647,0.647s0.646-0.29,0.646-0.647v-0.986c0-0.357-0.29-0.646-0.646-0.646c-0.354,0-0.647,0.287-0.647,0.646
	V116.581z M-68.995,118.864c1.529,0,2.776-1.244,2.776-2.775s-1.246-2.777-2.776-2.777c-1.532,0-2.777,1.246-2.777,2.777
	C-71.772,117.616-70.53,118.864-68.995,118.864z M-76.362,116.581c0,0.357,0.29,0.647,0.647,0.647c0.358,0,0.647-0.29,0.647-0.647
	v-0.986c0-0.357-0.289-0.646-0.647-0.646c-0.357,0-0.647,0.289-0.647,0.646V116.581z"/>
<path fill="#A0A09B" d="M-68.996,117.57c-0.817,0-1.482-0.665-1.482-1.481c0-0.818,0.665-1.483,1.482-1.483
	c0.818,0,1.482,0.665,1.482,1.483C-67.514,116.905-68.178,117.57-68.996,117.57z"/>
</svg>
