<?xml version="1.0" encoding="utf-8"?>
<!-- Generator: Adobe Illustrator 16.0.0, SVG Export Plug-In . SVG Version: 6.00 Build 0)  -->
<!DOCTYPE svg PUBLIC "-//W3C//DTD SVG 1.1//EN" "http://www.w3.org/Graphics/SVG/1.1/DTD/svg11.dtd">
<svg version="1.1" id="Layer_1" xmlns="http://www.w3.org/2000/svg" xmlns:xlink="http://www.w3.org/1999/xlink" x="0px" y="0px"
	 width="50px" height="50px" viewBox="0 0 50 50" enable-background="new 0 0 50 50" xml:space="preserve">
<path fill="#A0A09B" d="M25,0C11.193,0,0,11.193,0,25c0,13.809,11.193,25,25,25c13.809,0,25-11.191,25-25C50,11.193,38.809,0,25,0z
	 M39.323,35.964l-4.382,0.064c0,0-0.94,0.186-2.181-0.664c-1.641-1.126-3.19-4.056-4.395-3.672
	c-1.218,0.385-1.186,3.021-1.186,3.021s0.017,0.56-0.264,0.859c-0.304,0.325-0.896,0.391-0.896,0.391h-1.965
	c0,0-4.329,0.26-8.143-3.708c-4.157-4.329-7.83-12.92-7.83-12.92s-0.21-0.563,0.021-0.837c0.259-0.306,0.964-0.325,0.964-0.325
	l4.689-0.031c0,0,0.442,0.073,0.76,0.308c0.257,0.189,0.403,0.551,0.403,0.551s0.761,1.915,1.763,3.652
	c1.96,3.387,2.871,4.127,3.537,3.763c0.97-0.529,0.681-4.79,0.681-4.79s0.016-1.543-0.487-2.233
	c-0.391-0.532-1.129-0.689-1.456-0.732c-0.268-0.034,0.166-0.647,0.726-0.921c0.848-0.412,2.337-0.439,4.097-0.42
	c1.374,0.015,1.768,0.101,2.305,0.228c1.618,0.39,1.071,1.899,1.071,5.517c0,1.157-0.212,2.786,0.625,3.33
	c0.357,0.229,1.236,0.034,3.438-3.696c1.041-1.771,1.822-3.852,1.822-3.852s0.17-0.369,0.437-0.528
	c0.271-0.165,0.632-0.114,0.632-0.114l4.938-0.029c0,0,1.481-0.178,1.723,0.49c0.254,0.703-0.554,2.342-2.568,5.032
	c-3.311,4.416-3.682,3.999-0.928,6.551c2.623,2.441,3.167,3.627,3.258,3.773C41.614,35.823,39.323,35.964,39.323,35.964z"/>
</svg>
