<?xml version="1.0" encoding="utf-8"?>
<!-- Generator: Adobe Illustrator 16.0.0, SVG Export Plug-In . SVG Version: 6.00 Build 0)  -->
<!DOCTYPE svg PUBLIC "-//W3C//DTD SVG 1.1//EN" "http://www.w3.org/Graphics/SVG/1.1/DTD/svg11.dtd">
<svg version="1.1" id="Layer_1" xmlns="http://www.w3.org/2000/svg" xmlns:xlink="http://www.w3.org/1999/xlink" x="0px" y="0px"
	 width="25px" height="25px" viewBox="0 0 25 25" enable-background="new 0 0 25 25" xml:space="preserve">
<circle fill="#CB2A28" cx="12.5" cy="12.5" r="12.5"/>
<path fill="#FFFFFF" d="M17.777,15.701l-1.702-1.703c-0.339-0.338-0.901-0.328-1.251,0.023l-0.858,0.857
	c-0.054-0.029-0.11-0.061-0.169-0.094c-0.542-0.301-1.284-0.712-2.063-1.492c-0.783-0.783-1.194-1.525-1.496-2.067
	c-0.032-0.058-0.062-0.113-0.092-0.166l0.576-0.575l0.283-0.284c0.352-0.352,0.361-0.913,0.023-1.251L9.325,7.247
	c-0.338-0.338-0.9-0.328-1.252,0.023l-0.48,0.483l0.013,0.013C7.445,7.972,7.311,8.208,7.211,8.464
	c-0.092,0.243-0.15,0.475-0.176,0.708c-0.225,1.864,0.627,3.567,2.938,5.878c3.195,3.194,5.77,2.954,5.88,2.942
	c0.242-0.029,0.475-0.088,0.71-0.179c0.253-0.099,0.489-0.233,0.694-0.394l0.012,0.009l0.485-0.476
	C18.105,16.602,18.115,16.039,17.777,15.701z"/>
</svg>
