<?xml version="1.0" encoding="utf-8"?>
<!-- Generator: Adobe Illustrator 16.0.0, SVG Export Plug-In . SVG Version: 6.00 Build 0)  -->
<!DOCTYPE svg PUBLIC "-//W3C//DTD SVG 1.1//EN" "http://www.w3.org/Graphics/SVG/1.1/DTD/svg11.dtd">
<svg version="1.1" id="Layer_1" xmlns="http://www.w3.org/2000/svg" xmlns:xlink="http://www.w3.org/1999/xlink" x="0px" y="0px"
	 width="50px" height="50px" viewBox="0 0 50 50" enable-background="new 0 0 50 50" xml:space="preserve">
<path fill="#A0A09B" d="M30,25c0,2.761-2.239,5-5,5c-2.762,0-5-2.239-5-5c0-2.762,2.238-5,5-5C27.761,20,30,22.238,30,25z"/>
<path fill="#A0A09B" d="M35.459,17.087c-0.215-0.583-0.557-1.11-1.003-1.543c-0.433-0.446-0.96-0.788-1.543-1.005
	c-0.472-0.182-1.182-0.401-2.49-0.46c-1.416-0.065-1.842-0.078-5.423-0.078c-3.582,0-4.007,0.013-5.422,0.078
	c-1.309,0.059-2.02,0.278-2.491,0.46c-0.583,0.217-1.11,0.559-1.543,1.005c-0.446,0.433-0.788,0.96-1.005,1.543
	c-0.182,0.472-0.401,1.183-0.46,2.491c-0.065,1.415-0.08,1.84-0.08,5.422c0,3.581,0.015,4.007,0.08,5.423
	c0.059,1.309,0.278,2.019,0.46,2.49c0.217,0.583,0.559,1.11,1.005,1.543c0.433,0.446,0.96,0.788,1.543,1.003
	c0.472,0.186,1.183,0.403,2.491,0.462c1.415,0.065,1.838,0.078,5.422,0.078c3.581,0,4.007-0.013,5.423-0.078
	c1.309-0.059,2.019-0.276,2.49-0.462c1.169-0.452,2.094-1.377,2.546-2.546c0.186-0.472,0.403-1.182,0.462-2.49
	c0.065-1.416,0.078-1.842,0.078-5.423c0-3.582-0.013-4.007-0.078-5.422C35.862,18.27,35.645,17.559,35.459,17.087z M25,31.888
	c-3.806,0-6.89-3.082-6.89-6.888s3.084-6.89,6.89-6.89s6.888,3.084,6.888,6.89S28.806,31.888,25,31.888z M32.161,19.448
	c-0.889,0-1.607-0.721-1.607-1.611c0-0.889,0.719-1.609,1.607-1.609c0.893,0,1.611,0.721,1.611,1.609
	C33.772,18.728,33.054,19.448,32.161,19.448z"/>
<path fill="#A0A09B" d="M25,0C11.194,0,0,11.194,0,25s11.194,25,25,25s25-11.194,25-25S38.806,0,25,0z M39.271,30.918
	c-0.071,1.53-0.313,2.571-0.67,3.483c-0.742,1.93-2.27,3.457-4.199,4.199c-0.912,0.357-1.953,0.599-3.483,0.67
	c-1.53,0.068-2.019,0.085-5.918,0.085c-3.898,0-4.388-0.017-5.918-0.085c-1.528-0.071-2.571-0.313-3.484-0.67
	c-0.959-0.358-1.826-0.925-2.543-1.654c-0.73-0.716-1.295-1.585-1.656-2.545c-0.355-0.912-0.598-1.953-0.668-3.483
	c-0.069-1.53-0.086-2.019-0.086-5.918c0-3.898,0.017-4.388,0.086-5.918c0.07-1.528,0.313-2.571,0.668-3.484
	c0.359-0.959,0.926-1.826,1.656-2.543c0.717-0.73,1.584-1.295,2.543-1.656c0.913-0.355,1.956-0.598,3.484-0.668
	c1.53-0.069,2.02-0.086,5.918-0.086c3.899,0,4.388,0.017,5.918,0.086c1.53,0.07,2.571,0.313,3.483,0.668
	c0.96,0.359,1.829,0.926,2.545,1.656c0.729,0.717,1.296,1.584,1.654,2.543c0.357,0.913,0.599,1.956,0.67,3.484
	c0.068,1.53,0.085,2.02,0.085,5.918C39.355,28.899,39.339,29.388,39.271,30.918z"/>
</svg>
