<?xml version="1.0" encoding="utf-8"?>
<!-- Generator: Adobe Illustrator 16.0.0, SVG Export Plug-In . SVG Version: 6.00 Build 0)  -->
<!DOCTYPE svg PUBLIC "-//W3C//DTD SVG 1.1//EN" "http://www.w3.org/Graphics/SVG/1.1/DTD/svg11.dtd">
<svg version="1.1" id="Layer_1" xmlns="http://www.w3.org/2000/svg" xmlns:xlink="http://www.w3.org/1999/xlink" x="0px" y="0px"
	 width="25px" height="25px" viewBox="0 0 25 25" enable-background="new 0 0 25 25" xml:space="preserve">
<circle fill="#C3C1AA" cx="12.5" cy="12.5" r="12.5"/>
<path fill="#FFFFFF" d="M11.441,17.256c0,0.595-0.496,1.078-1.107,1.078c-0.612,0-1.107-0.483-1.107-1.078
	c0-0.596,0.496-1.078,1.107-1.078C10.945,16.178,11.441,16.66,11.441,17.256z M14.816,16.178c-0.611,0-1.107,0.482-1.107,1.078
	c0,0.595,0.496,1.078,1.107,1.078c0.612,0,1.107-0.483,1.107-1.078C15.924,16.66,15.429,16.178,14.816,16.178z M18.254,11.118
	l-1.362,3.942c0,0-0.112,0.585-0.688,0.585s-6.194,0-6.88,0c-0.686,0-0.715-0.732-0.715-0.732s-0.731-5.28-0.767-5.599
	S7.387,8.758,7.387,8.758l-1.803-0.82c-0.987-0.503-0.539-1.458,0-1.239C7.87,7.749,8.932,8.266,9,8.679
	C9.07,9.093,9.19,10.091,9.19,10.091v0.006c0.014-0.004,0.024-0.006,0.024-0.006s7.011,0,8.427,0
	C18.658,10.091,18.254,11.119,18.254,11.118z M16.283,13.313l-0.014,0.001h-6.67l0.137,1.062h6.223L16.283,13.313z M16.933,11.173
	H9.323l0.146,1.134c1.46,0,5.734,0,7.118,0L16.933,11.173z"/>
</svg>
