<?xml version="1.0" encoding="utf-8"?>
<!-- Generator: Adobe Illustrator 16.0.0, SVG Export Plug-In . SVG Version: 6.00 Build 0)  -->
<!DOCTYPE svg PUBLIC "-//W3C//DTD SVG 1.1//EN" "http://www.w3.org/Graphics/SVG/1.1/DTD/svg11.dtd">
<svg version="1.1" id="Layer_1" xmlns="http://www.w3.org/2000/svg" xmlns:xlink="http://www.w3.org/1999/xlink" x="0px" y="0px"
	 width="50px" height="50px" viewBox="0 0 50 50" enable-background="new 0 0 50 50" xml:space="preserve">
<path fill="#A0A09B" d="M25,0C11.193,0,0,11.193,0,25c0,13.809,11.193,25,25,25c13.809,0,25-11.191,25-25C50,11.193,38.809,0,25,0z
	 M34.538,12.731l-3.457,0.001c-2.715,0-3.236,1.289-3.236,3.179v4.17h6.465l-0.003,6.528h-6.462v16.757h-6.744V26.609h-5.639v-6.528
	h5.639v-4.815c0-5.588,3.414-8.631,8.398-8.631l5.039,0.006V12.731L34.538,12.731z"/>
</svg>
