<svg width="15" height="15" viewBox="0 0 15 15" fill="none" xmlns="http://www.w3.org/2000/svg">
<path d="M9 7.5C9 8.32844 8.32844 9 7.5 9C6.67156 9 6 8.32844 6 7.5C6 6.67156 6.67156 6 7.5 6C8.32844 6 9 6.67156 9 7.5Z" fill="#A0A09B"/>
<path d="M10.6379 5.12594C10.5734 4.95116 10.4705 4.79296 10.3368 4.66311C10.2069 4.5294 10.0489 4.4265 9.87396 4.362C9.73213 4.30692 9.51906 4.24135 9.12661 4.22348C8.70207 4.20412 8.57478 4.19995 7.5 4.19995C6.42512 4.19995 6.29784 4.20402 5.8734 4.22338C5.48095 4.24135 5.26777 4.30692 5.12605 4.362C4.95116 4.4265 4.79296 4.5294 4.66321 4.66311C4.52951 4.79296 4.42661 4.95105 4.362 5.12594C4.30692 5.26777 4.24135 5.48095 4.22348 5.8734C4.20412 6.29784 4.19995 6.42512 4.19995 7.5C4.19995 8.57478 4.20412 8.70207 4.22348 9.12661C4.24135 9.51906 4.30692 9.73213 4.362 9.87396C4.42661 10.0489 4.5294 10.2069 4.66311 10.3368C4.79296 10.4705 4.95105 10.5734 5.12594 10.6379C5.26777 10.6931 5.48095 10.7587 5.8734 10.7765C6.29784 10.7959 6.42502 10.8 7.4999 10.8C8.57489 10.8 8.70217 10.7959 9.1265 10.7765C9.51895 10.7587 9.73213 10.6931 9.87396 10.6379C10.225 10.5025 10.5025 10.225 10.6379 9.87396C10.693 9.73213 10.7586 9.51906 10.7765 9.12661C10.7959 8.70207 10.8 8.57478 10.8 7.5C10.8 6.42512 10.7959 6.29784 10.7765 5.8734C10.7587 5.48095 10.6931 5.26777 10.6379 5.12594ZM7.5 9.56687C6.35838 9.56687 5.43293 8.64152 5.43293 7.4999C5.43293 6.35827 6.35838 5.43293 7.5 5.43293C8.64152 5.43293 9.56698 6.35827 9.56698 7.4999C9.56698 8.64152 8.64152 9.56687 7.5 9.56687ZM9.6487 5.83425C9.38193 5.83425 9.16565 5.61797 9.16565 5.3512C9.16565 5.08444 9.38193 4.86816 9.6487 4.86816C9.91547 4.86816 10.1317 5.08444 10.1317 5.3512C10.1316 5.61797 9.91547 5.83425 9.6487 5.83425Z" fill="#A0A09B"/>
<path d="M7.5 0C3.3585 0 0 3.3585 0 7.5C0 11.6415 3.3585 15 7.5 15C11.6415 15 15 11.6415 15 7.5C15 3.3585 11.6415 0 7.5 0ZM11.7807 9.27555C11.7598 9.734 11.6869 10.047 11.5805 10.321C11.3568 10.8995 10.8995 11.3568 10.321 11.5805C10.0471 11.6869 9.734 11.7597 9.27567 11.7807C8.81641 11.8016 8.6697 11.8066 7.50011 11.8066C6.33041 11.8066 6.18382 11.8016 5.72445 11.7807C5.26611 11.7597 4.953 11.6869 4.67915 11.5805C4.39167 11.4724 4.13143 11.3029 3.91628 11.0837C3.69724 10.8687 3.52776 10.6083 3.41961 10.321C3.31318 10.0471 3.24028 9.734 3.21945 9.27567C3.19828 8.8163 3.19336 8.66959 3.19336 7.5C3.19336 6.33041 3.19828 6.1837 3.21934 5.72445C3.24017 5.266 3.31295 4.953 3.41938 4.67903C3.52753 4.39167 3.69713 4.13132 3.91628 3.91628C4.13132 3.69713 4.39167 3.52764 4.67903 3.41949C4.953 3.31306 5.266 3.24028 5.72445 3.21934C6.1837 3.19839 6.33041 3.19336 7.5 3.19336C8.66959 3.19336 8.8163 3.19839 9.27555 3.21945C9.734 3.24028 10.047 3.31306 10.321 3.41938C10.6083 3.52753 10.8687 3.69713 11.0838 3.91628C11.3029 4.13143 11.4725 4.39167 11.5805 4.67903C11.687 4.953 11.7598 5.266 11.7808 5.72445C11.8017 6.1837 11.8066 6.33041 11.8066 7.5C11.8066 8.66959 11.8017 8.8163 11.7807 9.27555Z" fill="#A0A09B"/>
</svg>
