<?xml version="1.0" encoding="utf-8"?>
<!-- Generator: Adobe Illustrator 16.0.0, SVG Export Plug-In . SVG Version: 6.00 Build 0)  -->
<!DOCTYPE svg PUBLIC "-//W3C//DTD SVG 1.1//EN" "http://www.w3.org/Graphics/SVG/1.1/DTD/svg11.dtd">
<svg version="1.1" id="Layer_1" xmlns="http://www.w3.org/2000/svg" xmlns:xlink="http://www.w3.org/1999/xlink" x="0px" y="0px"
	 width="25px" height="25px" viewBox="0 0 25 25" enable-background="new 0 0 25 25" xml:space="preserve">
<path fill="#A0A09B" d="M15,12.5c0,1.38-1.12,2.5-2.5,2.5c-1.381,0-2.5-1.12-2.5-2.5c0-1.381,1.119-2.5,2.5-2.5
	C13.88,10,15,11.119,15,12.5z"/>
<path fill="#A0A09B" d="M17.729,8.543c-0.107-0.291-0.278-0.555-0.501-0.771c-0.217-0.223-0.48-0.394-0.771-0.502
	c-0.236-0.091-0.591-0.201-1.245-0.23C14.504,7.007,14.29,7,12.5,7c-1.791,0-2.004,0.006-2.711,0.039
	c-0.654,0.029-1.01,0.139-1.246,0.23C8.252,7.378,7.988,7.549,7.772,7.772C7.549,7.988,7.378,8.252,7.27,8.543
	C7.179,8.779,7.069,9.135,7.04,9.789C7.007,10.496,7,10.709,7,12.5c0,1.79,0.007,2.004,0.04,2.712
	c0.029,0.654,0.139,1.009,0.23,1.245c0.108,0.291,0.279,0.555,0.502,0.771c0.216,0.223,0.48,0.394,0.771,0.501
	c0.236,0.093,0.592,0.202,1.246,0.231C10.496,17.993,10.708,18,12.5,18c1.79,0,2.004-0.007,2.712-0.039
	c0.654-0.029,1.009-0.139,1.245-0.231c0.584-0.227,1.046-0.688,1.272-1.272c0.093-0.236,0.202-0.591,0.231-1.245
	C17.993,14.504,18,14.29,18,12.5c0-1.791-0.007-2.004-0.039-2.711C17.932,9.135,17.822,8.779,17.729,8.543z M12.5,15.944
	c-1.902,0-3.445-1.542-3.445-3.444s1.543-3.445,3.445-3.445s3.444,1.543,3.444,3.445S14.402,15.944,12.5,15.944z M16.081,9.725
	c-0.444,0-0.805-0.361-0.805-0.807c0-0.443,0.36-0.805,0.805-0.805c0.445,0,0.806,0.361,0.806,0.805
	C16.887,9.363,16.526,9.725,16.081,9.725z"/>
<path fill="#A0A09B" d="M12.5,0C5.597,0,0,5.597,0,12.5C0,19.402,5.597,25,12.5,25C19.402,25,25,19.402,25,12.5
	C25,5.597,19.402,0,12.5,0z M19.636,15.459C19.6,16.224,19.479,16.745,19.3,17.2c-0.371,0.966-1.134,1.729-2.1,2.1
	c-0.455,0.18-0.977,0.3-1.741,0.336c-0.765,0.034-1.009,0.042-2.959,0.042c-1.949,0-2.194-0.008-2.959-0.042
	C8.777,19.6,8.255,19.479,7.799,19.3c-0.479-0.179-0.913-0.462-1.271-0.826C6.162,18.115,5.88,17.681,5.699,17.2
	c-0.178-0.455-0.299-0.977-0.334-1.741C5.331,14.694,5.322,14.45,5.322,12.5c0-1.949,0.008-2.194,0.043-2.959
	C5.4,8.777,5.521,8.255,5.699,7.799c0.18-0.479,0.463-0.913,0.828-1.271C6.886,6.162,7.319,5.88,7.799,5.699
	C8.255,5.521,8.777,5.4,9.541,5.365c0.765-0.035,1.01-0.043,2.959-0.043c1.95,0,2.194,0.008,2.959,0.043
	C16.224,5.4,16.745,5.521,17.2,5.699c0.48,0.18,0.915,0.463,1.273,0.828c0.364,0.358,0.647,0.792,0.826,1.271
	c0.18,0.456,0.3,0.979,0.336,1.742c0.034,0.765,0.042,1.01,0.042,2.959C19.678,14.45,19.67,14.694,19.636,15.459z"/>
</svg>
