<?xml version="1.0" encoding="utf-8"?>
<!-- Generator: Adobe Illustrator 16.0.0, SVG Export Plug-In . SVG Version: 6.00 Build 0)  -->
<!DOCTYPE svg PUBLIC "-//W3C//DTD SVG 1.1//EN" "http://www.w3.org/Graphics/SVG/1.1/DTD/svg11.dtd">
<svg version="1.1" id="Layer_1" xmlns="http://www.w3.org/2000/svg" xmlns:xlink="http://www.w3.org/1999/xlink" x="0px" y="0px"
	 width="18px" height="36px" viewBox="0 0 18 36" enable-background="new 0 0 18 36" xml:space="preserve">
<g>
	
		<rect x="26.905" y="23.961" transform="matrix(-0.7071 -0.7071 0.7071 -0.7071 29.7888 62.2608)" fill="#E0E0E0" width="1.768" height="2"/>
</g>
<g>
	<polygon fill="#E0E0E0" points="2.5,18 3.887,16.614 2.636,15.364 0,18 2.636,20.636 3.887,19.386 	"/>
</g>
<g>
	
		<rect x="29.733" y="12.868" transform="matrix(-0.7071 0.7071 -0.7071 -0.7071 62.0727 2.024)" fill="#E0E0E0" width="1.768" height="2"/>
</g>
<g>
	<polygon fill="#E0E0E0" points="33.5,18 32.113,19.387 33.363,20.637 36,18 33.363,15.364 32.113,16.614 	"/>
</g>
<g>
	
		<rect x="7.327" y="10.039" transform="matrix(0.7071 0.7071 -0.7071 0.7071 10.2109 -2.5727)" fill="#E0E0E0" width="1.768" height="2"/>
</g>
<g>
	
		<rect x="12.984" y="4.382" transform="matrix(0.7071 0.7071 -0.7071 0.7071 7.8678 -8.2298)" fill="#E0E0E0" width="1.768" height="2"/>
</g>
<g>
	<polygon fill="#E0E0E0" points="18,2.5 19.387,3.886 20.637,2.636 18,0 15.364,2.636 16.613,3.886 	"/>
</g>
<g>
	
		<rect x="4.498" y="21.132" transform="matrix(0.7071 -0.7071 0.7071 0.7071 -14.0731 10.2881)" fill="#E0E0E0" width="1.768" height="2"/>
</g>
<g>
	
		<rect x="21.249" y="4.382" transform="matrix(-0.7071 0.7071 -0.7071 -0.7071 41.589 -6.4621)" fill="#E0E0E0" width="1.768" height="2"/>
</g>
<g>
	
		<rect x="24.077" y="7.211" transform="matrix(-0.7071 0.7071 -0.7071 -0.7071 48.4168 -3.6335)" fill="#E0E0E0" width="1.768" height="2"/>
</g>
<g>
	
		<rect x="26.905" y="10.039" transform="matrix(-0.7071 0.7071 -0.7071 -0.7071 55.2447 -0.805)" fill="#E0E0E0" width="1.768" height="2"/>
</g>
<g>
	
		<rect x="10.155" y="7.211" transform="matrix(0.7071 0.7071 -0.7071 0.7071 9.0393 -5.4009)" fill="#E0E0E0" width="1.768" height="2"/>
</g>
<g>
	
		<rect x="4.498" y="12.868" transform="matrix(0.7071 0.7071 -0.7071 0.7071 11.3824 0.2559)" fill="#E0E0E0" width="1.768" height="2"/>
</g>
<g>
	
		<rect x="24.077" y="26.789" transform="matrix(-0.7071 -0.7071 0.7071 -0.7071 22.9612 65.0889)" fill="#E0E0E0" width="1.768" height="2"/>
</g>
<g>
	<polygon fill="#E0E0E0" points="18,33.5 16.613,32.113 15.364,33.363 18,36 20.637,33.363 19.387,32.113 	"/>
</g>
<g>
	
		<rect x="29.733" y="21.133" transform="matrix(-0.7071 -0.7071 0.7071 -0.7071 36.6165 59.4327)" fill="#E0E0E0" width="1.768" height="2"/>
</g>
<g>
	
		<rect x="12.984" y="29.617" transform="matrix(0.7071 -0.7071 0.7071 0.7071 -17.5877 18.7738)" fill="#E0E0E0" width="1.768" height="2"/>
</g>
<g>
	
		<rect x="21.249" y="29.617" transform="matrix(-0.7071 -0.7071 0.7071 -0.7071 16.1335 67.9171)" fill="#E0E0E0" width="1.768" height="2"/>
</g>
<g>
	
		<rect x="7.327" y="23.96" transform="matrix(0.7071 -0.7071 0.7071 0.7071 -15.2448 13.1166)" fill="#E0E0E0" width="1.768" height="2.001"/>
</g>
<g>
	
		<rect x="10.155" y="26.789" transform="matrix(0.7071 -0.7071 0.7071 0.7071 -16.4166 15.945)" fill="#E0E0E0" width="1.768" height="2"/>
</g>
</svg>
