<svg width="36" height="18" xmlns="http://www.w3.org/2000/svg">

 <g>
  <title>background</title>
  <rect fill="none" id="canvas_background" height="20" width="38" y="-1" x="-1"/>
 </g>
 <g>
  <title>Layer 1</title>
  <g id="svg_1">
   <rect id="svg_2" height="2" width="1.768" fill="#E0E0E0" transform="matrix(-0.7071 -0.7071 0.7071 -0.7071 29.7888 62.2608)" y="23.961" x="26.905"/>
  </g>
  <g id="svg_3">
   <polygon id="svg_4" points="2.5,18 3.887,16.614 2.636,15.364 0,18 2.636,20.636 3.887,19.386  " fill="#E0E0E0"/>
  </g>
  <g id="svg_5">
   <rect id="svg_6" height="2" width="1.768" fill="#E0E0E0" transform="matrix(-0.7071 0.7071 -0.7071 -0.7071 62.0727 2.024)" y="12.868" x="29.733"/>
  </g>
  <g id="svg_7">
   <polygon id="svg_8" points="33.5,18 32.113,19.387 33.363,20.637 36,18 33.363,15.364 32.113,16.614  " fill="#E0E0E0"/>
  </g>
  <g id="svg_9">
   <rect id="svg_10" height="2" width="1.768" fill="#E0E0E0" transform="matrix(0.7071 0.7071 -0.7071 0.7071 10.2109 -2.5727)" y="10.039" x="7.327"/>
  </g>
  <g id="svg_11">
   <rect id="svg_12" height="2" width="1.768" fill="#E0E0E0" transform="matrix(0.7071 0.7071 -0.7071 0.7071 7.8678 -8.2298)" y="4.382" x="12.984"/>
  </g>
  <g id="svg_13">
   <polygon id="svg_14" points="18,2.5 19.387,3.886 20.637,2.636 18,0 15.364,2.636 16.613,3.886  " fill="#E0E0E0"/>
  </g>
  <g id="svg_15">
   <rect id="svg_16" height="2" width="1.768" fill="#E0E0E0" transform="matrix(0.7071 -0.7071 0.7071 0.7071 -14.0731 10.2881)" y="21.132" x="4.498"/>
  </g>
  <g id="svg_17">
   <rect id="svg_18" height="2" width="1.768" fill="#E0E0E0" transform="matrix(-0.7071 0.7071 -0.7071 -0.7071 41.589 -6.4621)" y="4.382" x="21.249"/>
  </g>
  <g id="svg_19">
   <rect id="svg_20" height="2" width="1.768" fill="#E0E0E0" transform="matrix(-0.7071 0.7071 -0.7071 -0.7071 48.4168 -3.6335)" y="7.211" x="24.077"/>
  </g>
  <g id="svg_21">
   <rect id="svg_22" height="2" width="1.768" fill="#E0E0E0" transform="matrix(-0.7071 0.7071 -0.7071 -0.7071 55.2447 -0.805)" y="10.039" x="26.905"/>
  </g>
  <g id="svg_23">
   <rect id="svg_24" height="2" width="1.768" fill="#E0E0E0" transform="matrix(0.7071 0.7071 -0.7071 0.7071 9.0393 -5.4009)" y="7.211" x="10.155"/>
  </g>
  <g id="svg_25">
   <rect id="svg_26" height="2" width="1.768" fill="#E0E0E0" transform="matrix(0.7071 0.7071 -0.7071 0.7071 11.3824 0.2559)" y="12.868" x="4.498"/>
  </g>
  <g id="svg_27">
   <rect id="svg_28" height="2" width="1.768" fill="#E0E0E0" transform="matrix(-0.7071 -0.7071 0.7071 -0.7071 22.9612 65.0889)" y="26.789" x="24.077"/>
  </g>
  <g id="svg_29">
   <polygon id="svg_30" points="18,33.5 16.613,32.113 15.364,33.363 18,36 20.637,33.363 19.387,32.113  " fill="#E0E0E0"/>
  </g>
  <g id="svg_31">
   <rect id="svg_32" height="2" width="1.768" fill="#E0E0E0" transform="matrix(-0.7071 -0.7071 0.7071 -0.7071 36.6165 59.4327)" y="21.133" x="29.733"/>
  </g>
  <g id="svg_33">
   <rect id="svg_34" height="2" width="1.768" fill="#E0E0E0" transform="matrix(0.7071 -0.7071 0.7071 0.7071 -17.5877 18.7738)" y="29.617" x="12.984"/>
  </g>
  <g id="svg_35">
   <rect id="svg_36" height="2" width="1.768" fill="#E0E0E0" transform="matrix(-0.7071 -0.7071 0.7071 -0.7071 16.1335 67.9171)" y="29.617" x="21.249"/>
  </g>
  <g id="svg_37">
   <rect id="svg_38" height="2.001" width="1.768" fill="#E0E0E0" transform="matrix(0.7071 -0.7071 0.7071 0.7071 -15.2448 13.1166)" y="23.96" x="7.327"/>
  </g>
  <g id="svg_39">
   <rect id="svg_40" height="2" width="1.768" fill="#E0E0E0" transform="matrix(0.7071 -0.7071 0.7071 0.7071 -16.4166 15.945)" y="26.789" x="10.155"/>
  </g>
 </g>
</svg>