<svg version="1.1" xmlns="http://www.w3.org/2000/svg" xmlns:xlink="http://www.w3.org/1999/xlink" width="18" height="36" enable-background="new 0 0 18 36" xml:space="preserve" style=""><rect id="backgroundrect" width="100%" height="100%" x="0" y="0" fill="none" stroke="none"/>




















<g class="currentLayer" style=""><title>Layer 1</title><g id="svg_1" class="selected" fill="#6d6d6d" fill-opacity="1" stroke-dasharray="none" opacity="1" stroke-width="79">
	
		<rect x="39.57763920724392" y="11.274879183620214" transform="matrix(-0.7071, -0.7071, 0.7071, -0.7071, 29.7888, 62.2608)" fill="#6d6d6d" width="1.7680000066757202" height="2" id="svg_2" fill-opacity="1" stroke-dasharray="none" opacity="1" stroke-width="79"/>
</g><g id="svg_3" class="selected" fill="#6d6d6d" fill-opacity="1" stroke-dasharray="none" opacity="1" stroke-width="79">
	<polygon fill="#6d6d6d" points="-15.431177616119385,18.009532928466797 -14.044178485870361,16.623531341552734 -15.295177936553955,15.373533248901367 -17.931177616119385,18.009532928466797 -15.295177936553955,20.645530700683594 -14.044178485870361,19.395530700683594 " id="svg_4" fill-opacity="1" stroke-dasharray="none" opacity="1" stroke-width="79"/>
</g><g id="svg_5" class="selected" fill="#6d6d6d" fill-opacity="1" stroke-dasharray="none" opacity="1" stroke-width="79">
	
		<rect x="42.41912106052041" y="25.54063855111599" transform="matrix(-0.7071, 0.7071, -0.7071, -0.7071, 62.0727, 2.024)" fill="#6d6d6d" width="1.7680000066757202" height="2" id="svg_6" fill-opacity="1" stroke-dasharray="none" opacity="1" stroke-width="79"/>
</g><g id="svg_7" class="selected" fill="#6d6d6d" fill-opacity="1" stroke-dasharray="none" opacity="1" stroke-width="79">
	<polygon fill="#6d6d6d" points="15.568821430206299,18.009532928466797 14.181820392608643,19.396530151367188 15.431820392608643,20.646530151367188 18.0688214302063,18.009532928466797 15.431820392608643,15.373533248901367 14.181820392608643,16.623531341552734 " id="svg_8" fill-opacity="1" stroke-dasharray="none" opacity="1" stroke-width="79"/>
</g><g id="svg_9" class="selected" fill="#6d6d6d" fill-opacity="1" stroke-dasharray="none" opacity="1" stroke-width="79">
	
		<rect x="-5.345638379454613" y="22.725120816379786" transform="matrix(0.7071, 0.7071, -0.7071, 0.7071, 10.2109, -2.5727)" fill="#6d6d6d" width="1.7680000066757202" height="2" id="svg_10" fill-opacity="1" stroke-dasharray="none" opacity="1" stroke-width="79"/>
</g><g id="svg_11" class="selected" fill="#6d6d6d" fill-opacity="1" stroke-dasharray="none" opacity="1" stroke-width="79">
	
		<rect x="0.3113616853952408" y="17.06812122836709" transform="matrix(0.7071, 0.7071, -0.7071, 0.7071, 7.8678, -8.2298)" fill="#6d6d6d" width="1.7680000066757202" height="2" id="svg_12" fill-opacity="1" stroke-dasharray="none" opacity="1" stroke-width="79"/>
</g><g id="svg_13" class="selected" fill="#6d6d6d" fill-opacity="1" stroke-dasharray="none" opacity="1" stroke-width="79">
	<polygon fill="#6d6d6d" points="0.06882238388061523,2.5095338821411133 1.4558215141296387,3.895533561706543 2.7058215141296387,2.645533561706543 0.06882238388061523,0.009533405303955078 -2.5671772956848145,2.645533561706543 -1.3181767463684082,3.895533561706543 " id="svg_14" fill-opacity="1" stroke-dasharray="none" opacity="1" stroke-width="79"/>
</g><g id="svg_15" class="selected" fill="#6d6d6d" fill-opacity="1" stroke-dasharray="none" opacity="1" stroke-width="79">
	
		<rect x="-8.188121113926172" y="8.45936144888401" transform="matrix(0.7071, -0.7071, 0.7071, 0.7071, -14.0731, 10.2881)" fill="#6d6d6d" width="1.7680000066757202" height="2" id="svg_16" fill-opacity="1" stroke-dasharray="none" opacity="1" stroke-width="79"/>
</g><g id="svg_17" class="selected" fill="#6d6d6d" fill-opacity="1" stroke-dasharray="none" opacity="1" stroke-width="79">
	
		<rect x="33.935121808201075" y="17.054638490080833" transform="matrix(-0.7071, 0.7071, -0.7071, -0.7071, 41.589, -6.4621)" fill="#6d6d6d" width="1.7680000066757202" height="2" id="svg_18" fill-opacity="1" stroke-dasharray="none" opacity="1" stroke-width="79"/>
</g><g id="svg_19" class="selected" fill="#6d6d6d" fill-opacity="1" stroke-dasharray="none" opacity="1" stroke-width="79">
	
		<rect x="36.76312092319131" y="19.883638486266136" transform="matrix(-0.7071, 0.7071, -0.7071, -0.7071, 48.4168, -3.6335)" fill="#6d6d6d" width="1.7680000066757202" height="2" id="svg_20" fill-opacity="1" stroke-dasharray="none" opacity="1" stroke-width="79"/>
</g><g id="svg_21" class="selected" fill="#6d6d6d" fill-opacity="1" stroke-dasharray="none" opacity="1" stroke-width="79">
	
		<rect x="39.591121945530176" y="22.71163807809353" transform="matrix(-0.7071, 0.7071, -0.7071, -0.7071, 55.2447, -0.805)" fill="#6d6d6d" width="1.7680000066757202" height="2" id="svg_22" fill-opacity="1" stroke-dasharray="none" opacity="1" stroke-width="79"/>
</g><g id="svg_23" class="selected" fill="#6d6d6d" fill-opacity="1" stroke-dasharray="none" opacity="1" stroke-width="79">
	
		<rect x="-2.51763878762722" y="19.897121224552393" transform="matrix(0.7071, 0.7071, -0.7071, 0.7071, 9.0393, -5.4009)" fill="#6d6d6d" width="1.7680000066757202" height="2" id="svg_24" fill-opacity="1" stroke-dasharray="none" opacity="1" stroke-width="79"/>
</g><g id="svg_25" class="selected" fill="#6d6d6d" fill-opacity="1" stroke-dasharray="none" opacity="1" stroke-width="79">
	
		<rect x="-8.174638375639915" y="25.554121289402246" transform="matrix(0.7071, 0.7071, -0.7071, 0.7071, 11.3824, 0.2559)" fill="#6d6d6d" width="1.7680000066757202" height="2" id="svg_26" fill-opacity="1" stroke-dasharray="none" opacity="1" stroke-width="79"/>
</g><g id="svg_27" class="selected" fill="#6d6d6d" fill-opacity="1" stroke-dasharray="none" opacity="1" stroke-width="79">
	
		<rect x="36.74963818490505" y="14.102878298610449" transform="matrix(-0.7071, -0.7071, 0.7071, -0.7071, 22.9612, 65.0889)" fill="#6d6d6d" width="1.7680000066757202" height="2" id="svg_28" fill-opacity="1" stroke-dasharray="none" opacity="1" stroke-width="79"/>
</g><g id="svg_29" class="selected" fill="#6d6d6d" fill-opacity="1" stroke-dasharray="none" opacity="1" stroke-width="79">
	<polygon fill="#6d6d6d" points="0.06882238388061523,33.5095329284668 -1.3181767463684082,32.12253189086914 -2.5671772956848145,33.37253189086914 0.06882238388061523,36.0095329284668 2.7058215141296387,33.37253189086914 1.4558215141296387,32.12253189086914 " id="svg_30" fill-opacity="1" stroke-dasharray="none" opacity="1" stroke-width="79"/>
</g><g id="svg_31" class="selected" fill="#6d6d6d" fill-opacity="1" stroke-dasharray="none" opacity="1" stroke-width="79">
	
		<rect x="42.405638322234154" y="8.446878161281347" transform="matrix(-0.7071, -0.7071, 0.7071, -0.7071, 36.6165, 59.4327)" fill="#6d6d6d" width="1.7680000066757202" height="2" id="svg_32" fill-opacity="1" stroke-dasharray="none" opacity="1" stroke-width="79"/>
</g><g id="svg_33" class="selected" fill="#6d6d6d" fill-opacity="1" stroke-dasharray="none" opacity="1" stroke-width="79">
	
		<rect x="0.297878947108984" y="16.944362059235573" transform="matrix(0.7071, -0.7071, 0.7071, 0.7071, -17.5877, 18.7738)" fill="#6d6d6d" width="1.7680000066757202" height="2" id="svg_34" fill-opacity="1" stroke-dasharray="none" opacity="1" stroke-width="79"/>
</g><g id="svg_35" class="selected" fill="#6d6d6d" fill-opacity="1" stroke-dasharray="none" opacity="1" stroke-width="79">
	
		<rect x="33.92163906991482" y="16.930879320949316" transform="matrix(-0.7071, -0.7071, 0.7071, -0.7071, 16.1335, 67.9171)" fill="#6d6d6d" width="1.7680000066757202" height="2" id="svg_36" fill-opacity="1" stroke-dasharray="none" opacity="1" stroke-width="79"/>
</g><g id="svg_37" class="selected" fill="#6d6d6d" fill-opacity="1" stroke-dasharray="none" opacity="1" stroke-width="79">
	
		<rect x="-5.3591211177408695" y="11.287360563874245" transform="matrix(0.7071, -0.7071, 0.7071, 0.7071, -15.2448, 13.1166)" fill="#6d6d6d" width="1.7680000066757202" height="2.000999927520752" id="svg_38" fill-opacity="1" stroke-dasharray="none" opacity="1" stroke-width="79"/>
</g><g id="svg_39" class="selected" fill="#6d6d6d" fill-opacity="1" stroke-dasharray="none" opacity="1" stroke-width="79">
	
		<rect x="-2.531121525913477" y="14.116361036896706" transform="matrix(0.7071, -0.7071, 0.7071, 0.7071, -16.4166, 15.945)" fill="#6d6d6d" width="1.7680000066757202" height="2" id="svg_40" fill-opacity="1" stroke-dasharray="none" opacity="1" stroke-width="79"/>
</g></g></svg>