<?xml version="1.0" encoding="utf-8"?>
<!-- Generator: Adobe Illustrator 16.0.0, SVG Export Plug-In . SVG Version: 6.00 Build 0)  -->
<!DOCTYPE svg PUBLIC "-//W3C//DTD SVG 1.1//EN" "http://www.w3.org/Graphics/SVG/1.1/DTD/svg11.dtd">
<svg version="1.1" id="Layer_1" xmlns="http://www.w3.org/2000/svg" xmlns:xlink="http://www.w3.org/1999/xlink" x="0px" y="0px"
	 width="50px" height="50px" viewBox="0 0 50 50" enable-background="new 0 0 50 50" xml:space="preserve">
<circle fill="#F3392D" cx="25" cy="25" r="25"/>
<path fill="#FFFFFF" d="M26.001,12.002c-0.378,0-0.725,0.214-0.894,0.553l-3.061,6.123c0,0,0,0.001-0.001,0.002l-3.073,6.147
	c0,0,0,0.001-0.001,0.002l-4.862,9.724c-0.192,0.385-0.117,0.85,0.188,1.154C14.487,35.898,14.743,36,15.002,36
	c0.152,0,0.305-0.035,0.447-0.105l21.998-10.999C37.786,24.726,38,24.38,38,24.001C38,17.385,32.617,12.002,26.001,12.002z
	 M24.501,22.501c0,1.378-1.121,2.5-2.5,2.5c-0.282,0-0.556-0.047-0.813-0.136l2.216-4.433
	C24.074,20.888,24.501,21.657,24.501,22.501z M20.29,26.662c0.536,0.221,1.113,0.339,1.711,0.339c2.481,0,4.5-2.019,4.5-4.5
	c0-1.611-0.864-3.068-2.2-3.863l0.442-0.883c3.693,0.856,6.648,3.811,7.505,7.505l-15.01,7.504L20.29,26.662z M34.076,24.346
	c-1.113-4.115-4.305-7.306-8.42-8.418l0.953-1.906c5.03,0.303,9.068,4.342,9.373,9.372L34.076,24.346z"/>
<path fill="#FFFFFF" d="M30.208,23.294c-0.39-0.391-1.024-0.391-1.413,0l-0.5,0.5c-0.391,0.391-0.391,1.023,0,1.414
	c0.194,0.196,0.45,0.293,0.706,0.293c0.257,0,0.513-0.097,0.707-0.293l0.5-0.5C30.599,24.318,30.599,23.685,30.208,23.294z"/>
</svg>
