<?xml version="1.0" encoding="utf-8"?>
<!-- Generator: Adobe Illustrator 16.0.0, SVG Export Plug-In . SVG Version: 6.00 Build 0)  -->
<!DOCTYPE svg PUBLIC "-//W3C//DTD SVG 1.1//EN" "http://www.w3.org/Graphics/SVG/1.1/DTD/svg11.dtd">
<svg version="1.1" id="Layer_1" xmlns="http://www.w3.org/2000/svg" xmlns:xlink="http://www.w3.org/1999/xlink" x="0px" y="0px"
	 width="50px" height="50px" viewBox="0 0 50 50" enable-background="new 0 0 50 50" xml:space="preserve">
<circle fill="#F3392D" cx="25" cy="25" r="25"/>
<path fill="#FFFFFF" d="M35.279,11.758c0.486,0,0.879-0.394,0.879-0.879S35.766,10,35.279,10h-7.451l-0.673,5.22H13.593
	c-0.587,0-1.048,0.504-0.996,1.089l2.027,22.779C14.67,39.604,15.102,40,15.62,40H30.52c0.518,0,0.949-0.396,0.996-0.912
	l2.026-22.779c0.052-0.585-0.409-1.089-0.996-1.089h-3.618l0.445-3.462H35.279z M26.929,16.978l-0.645,5.008
	c-0.934-0.173-1.864-0.518-2.785-1.035c-2.886-1.619-5.45-1.529-7.093-1.169c-0.661,0.145-1.23,0.345-1.688,0.541l-0.297-3.345
	H26.929z M16.313,38.242l-1.429-16.053c0.405-0.214,1.088-0.521,1.973-0.705c1.933-0.404,3.878-0.067,5.782,1.001
	c1.886,1.058,3.634,1.386,5.078,1.386c0.765,0,1.445-0.092,2.015-0.217c0.542-0.119,1.022-0.274,1.43-0.435l-1.336,15.023H16.313z
	 M31.718,16.978l-0.376,4.222c-0.389,0.215-1.108,0.554-2.061,0.753c-0.413,0.086-0.827,0.138-1.24,0.157l0.66-5.132H31.718z"/>
<path fill="#FFFFFF" d="M17.647,32.877c-0.391,0.391-0.391,1.024,0,1.414l2.418,2.419c0.39,0.391,1.023,0.391,1.414,0l2.418-2.419
	c0.391-0.39,0.391-1.023,0-1.414l-2.418-2.418c-0.391-0.391-1.024-0.391-1.414,0L17.647,32.877z M21.446,34.258
	c-0.372,0.372-0.975,0.372-1.347,0c-0.372-0.371-0.372-0.975,0-1.347s0.975-0.372,1.347,0
	C21.817,33.283,21.817,33.887,21.446,34.258z"/>
<path fill="#FFFFFF" d="M23.6,29.758c0,0.553,0.448,1,1,1h3.42c0.553,0,1-0.447,1-1v-3.42c0-0.552-0.447-1-1-1H24.6
	c-0.552,0-1,0.448-1,1V29.758z M25.357,28.049c0-0.526,0.426-0.953,0.952-0.953s0.952,0.427,0.952,0.953
	c0,0.525-0.426,0.951-0.952,0.951S25.357,28.574,25.357,28.049z"/>
</svg>
