<?xml version="1.0" encoding="utf-8"?>
<!-- Generator: Adobe Illustrator 16.0.0, SVG Export Plug-In . SVG Version: 6.00 Build 0)  -->
<!DOCTYPE svg PUBLIC "-//W3C//DTD SVG 1.1//EN" "http://www.w3.org/Graphics/SVG/1.1/DTD/svg11.dtd">
<svg version="1.1" id="Layer_1" xmlns="http://www.w3.org/2000/svg" xmlns:xlink="http://www.w3.org/1999/xlink" x="0px" y="0px"
	 width="50px" height="50px" viewBox="20 20 50 50" enable-background="new 20 20 50 50" xml:space="preserve">
<g>
	<circle fill="#94CD1B" cx="45" cy="45" r="25"/>
</g>
<path fill="#FFFFFF" d="M30.197,41v3.09h-4.15V41h-0.84v7h0.84v-3.11h4.15V48h0.84v-7H30.197z M32.256,45.6
	c0,1.641,1.26,2.521,2.56,2.521c1.31,0,2.56-0.88,2.56-2.521c0-1.64-1.25-2.52-2.56-2.52C33.516,43.08,32.256,43.96,32.256,45.6z
	 M36.576,45.6c0,1.11-0.78,1.76-1.76,1.76s-1.76-0.649-1.76-1.76c0-1.11,0.78-1.76,1.76-1.76S36.576,44.49,36.576,45.6z M41.233,48
	c1.04,0,1.55-0.54,1.55-1.33c0-0.6-0.4-0.98-0.79-1.109c0.36-0.161,0.64-0.561,0.64-1.061c0-0.85-0.64-1.3-1.48-1.3h-2.63V48H41.233
	z M39.323,45.92h1.83c0.4,0,0.83,0.13,0.83,0.7c0,0.53-0.36,0.68-0.86,0.68h-1.8V45.92z M39.323,43.9h1.75
	c0.34,0,0.75,0.14,0.75,0.68c0,0.49-0.33,0.65-0.75,0.65h-1.75V43.9z M44.682,48l2.939-3.51V48h0.801v-4.8h-0.68l-2.94,3.51V43.2
	h-0.8V48H44.682z M50.7,48v-2.029h2.78V48h0.8v-4.8h-0.8v2.03H50.7V43.2h-0.8V48H50.7z M56.56,48v-2.061h0.94L59.26,48h0.939
	l-2.039-2.41l1.819-2.39h-0.931l-1.52,2h-0.97v-2h-0.8V48H56.56z M64.855,47v-1.88c0-1.34-0.811-2.04-2.091-2.04
	c-0.79,0-1.45,0.19-1.83,0.32v0.78c0.421-0.18,1.011-0.36,1.75-0.36c0.88,0,1.37,0.48,1.37,1.2v0.17c-0.4-0.09-0.91-0.15-1.33-0.15
	c-1.029,0-2.17,0.38-2.17,1.62c0,1.01,0.84,1.46,1.689,1.46c0.781,0,1.391-0.24,1.871-0.64c0.14,0.42,0.49,0.58,0.879,0.58
	c0.201,0,0.41-0.041,0.601-0.11V47.3c-0.12,0.04-0.25,0.07-0.37,0.07C65.015,47.37,64.855,47.29,64.855,47z M61.375,46.62
	c0-0.7,0.76-0.91,1.46-0.91c0.39,0,0.88,0.069,1.22,0.14v0.881c-0.42,0.449-1.029,0.699-1.64,0.699
	C61.885,47.43,61.375,47.18,61.375,46.62z"/>
</svg>
