<?xml version="1.0" encoding="utf-8"?>
<!-- Generator: Adobe Illustrator 16.0.0, SVG Export Plug-In . SVG Version: 6.00 Build 0)  -->
<!DOCTYPE svg PUBLIC "-//W3C//DTD SVG 1.1//EN" "http://www.w3.org/Graphics/SVG/1.1/DTD/svg11.dtd">
<svg version="1.1" id="Layer_1" xmlns="http://www.w3.org/2000/svg" xmlns:xlink="http://www.w3.org/1999/xlink" x="0px" y="0px"
	 width="30px" height="30px" viewBox="0 0 30 30" enable-background="new 0 0 30 30" xml:space="preserve">
<circle fill="#45443B" cx="15" cy="15" r="15"/>
<path fill="#E5E4D6" d="M18.663,10.825c-0.007-0.003-0.007-0.01-0.013-0.013c-0.014-0.009-0.022-0.009-0.034-0.016
	C17.691,10.291,16.628,10,15.5,10h-6C7.569,10,6,11.569,6,13.5c0,0.65,0.419,1.2,1,1.41V18c0,1.104,0.897,2,2,2h10
	c1.104,0,2-0.896,2-2v-1.2c0.084,0.048,0.169,0.088,0.253,0.135C21.331,16.979,21.416,17,21.5,17c0.087,0,0.172-0.021,0.25-0.065
	C21.902,16.844,22,16.678,22,16.5C22,14.063,20.65,11.938,18.663,10.825z M15.5,11c0.759,0,1.479,0.166,2.134,0.447
	c-0.489,0.828-0.817,1.769-0.987,2.809C15.764,14.104,14.872,14,13.969,14H13.7c0.306-1.428,0.931-2.394,1.472-3H15.5z M13.903,11
	c-0.5,0.722-0.975,1.709-1.222,3h-2.484c0.306-1.428,0.931-2.394,1.472-3H13.903z M7.5,14C7.225,14,7,13.775,7,13.5
	C7,12.122,8.122,11,9.5,11h0.906c-0.5,0.722-0.975,1.709-1.222,3H7.5z M20,18c0,0.55-0.45,1-1,1H9c-0.55,0-1-0.45-1-1v-3h5.969
	c2.081,0,4.141,0.453,6.031,1.307V18z M20.738,15.55c-0.029-0.015-0.061-0.028-0.092-0.037c-0.969-0.456-1.978-0.822-3.019-1.072
	c0.149-0.94,0.447-1.784,0.888-2.519c1.26,0.834,2.168,2.16,2.416,3.709C20.869,15.6,20.803,15.578,20.738,15.55z"/>
</svg>
