<?xml version="1.0" encoding="utf-8"?>
<!-- Generator: Adobe Illustrator 16.0.0, SVG Export Plug-In . SVG Version: 6.00 Build 0)  -->
<!DOCTYPE svg PUBLIC "-//W3C//DTD SVG 1.1//EN" "http://www.w3.org/Graphics/SVG/1.1/DTD/svg11.dtd">
<svg version="1.1" id="Layer_1" xmlns="http://www.w3.org/2000/svg" xmlns:xlink="http://www.w3.org/1999/xlink" x="0px" y="0px"
	 width="50px" height="50px" viewBox="0 0 50 50" enable-background="new 0 0 50 50" xml:space="preserve">
<circle fill="#F3392D" cx="25" cy="25" r="25"/>
<path fill="#FCFCFC" d="M20.909,16.363c0-0.396-0.771-0.718-1.723-0.718c-0.951,0-1.722,0.322-1.722,0.718
	c0,0.396,0.771,0.718,1.722,0.718C20.138,17.081,20.909,16.76,20.909,16.363z"/>
<path fill="#FCFCFC" d="M37.021,21.756c-1.672-0.687-3.875-1.066-6.205-1.066c-0.839,0-1.66,0.049-2.447,0.145v-4.481
	c0-1.293-1.059-2.439-2.978-3.23c-1.672-0.687-3.876-1.066-6.207-1.066s-4.534,0.379-6.206,1.066C11.058,13.914,10,15.06,10,16.353
	v7.466c0,1.293,1.058,2.44,2.978,3.23c1.672,0.688,3.875,1.065,6.206,1.065c0.838,0,1.66-0.049,2.447-0.145v4.481
	c0,1.293,1.058,2.439,2.978,3.229c1.672,0.688,3.876,1.066,6.208,1.066c2.33,0,4.533-0.379,6.205-1.066
	C38.942,34.891,40,33.744,40,32.451v-7.466C40,23.692,38.942,22.545,37.021,21.756z M38.242,32.451c0,0.501-0.74,1.129-1.887,1.6
	c-1.466,0.604-3.434,0.935-5.539,0.935c-2.107,0-4.074-0.331-5.539-0.935c-1.147-0.471-1.888-1.099-1.888-1.6v-4.857
	c0.028,0.019,0.058,0.037,0.087,0.055c0.334,0.205,0.713,0.394,1.132,0.566c1.672,0.688,3.876,1.066,6.208,1.066
	c2.33,0,4.533-0.379,6.205-1.066c0.457-0.188,0.865-0.396,1.221-0.621V32.451z M38.242,24.985c0,0.501-0.74,1.128-1.887,1.6
	c-1.466,0.603-3.434,0.935-5.539,0.935c-1.818,0-3.531-0.247-4.908-0.702c-0.22-0.072-0.43-0.149-0.631-0.232
	c-0.616-0.253-1.115-0.552-1.445-0.851c-0.285-0.258-0.443-0.517-0.443-0.75c0-0.5,0.741-1.128,1.888-1.6
	c0.408-0.168,0.855-0.314,1.333-0.439c0.55-0.143,1.14-0.257,1.759-0.338c0.777-0.103,1.601-0.156,2.447-0.156
	c2.105,0,4.073,0.332,5.539,0.934C37.502,23.857,38.242,24.485,38.242,24.985z M13.645,14.753c1.465-0.603,3.433-0.935,5.539-0.935
	c2.107,0,4.074,0.332,5.539,0.935c1.146,0.471,1.888,1.099,1.888,1.6c0,0.5-0.741,1.128-1.888,1.6
	c-1.465,0.602-3.432,0.934-5.539,0.934c-2.106,0-4.074-0.332-5.539-0.934c-1.146-0.472-1.887-1.1-1.887-1.6
	C11.758,15.852,12.499,15.224,13.645,14.753z M19.184,26.354c-2.106,0-4.074-0.332-5.539-0.935c-1.146-0.471-1.887-1.099-1.887-1.6
	v-4.857c0.356,0.226,0.764,0.433,1.22,0.621c1.672,0.687,3.875,1.066,6.206,1.066s4.535-0.379,6.207-1.066
	c0.457-0.188,0.863-0.395,1.219-0.621v2.174c-0.724,0.164-1.397,0.373-2.001,0.621c-1.92,0.79-2.978,1.937-2.978,3.229v1.211
	C20.854,26.3,20.03,26.354,19.184,26.354z"/>
<path fill="#FCFCFC" d="M29.091,24.976c0,0.396,0.803,0.717,1.794,0.717c0.99,0,1.795-0.321,1.795-0.717s-0.805-0.718-1.795-0.718
	C29.894,24.258,29.091,24.58,29.091,24.976z"/>
</svg>
