<?xml version="1.0" encoding="utf-8"?>
<!-- Generator: Adobe Illustrator 16.0.0, SVG Export Plug-In . SVG Version: 6.00 Build 0)  -->
<!DOCTYPE svg PUBLIC "-//W3C//DTD SVG 1.1//EN" "http://www.w3.org/Graphics/SVG/1.1/DTD/svg11.dtd">
<svg version="1.1" id="Layer_1" xmlns="http://www.w3.org/2000/svg" xmlns:xlink="http://www.w3.org/1999/xlink" x="0px" y="0px"
	 width="50px" height="50px" viewBox="0 0 50 50" enable-background="new 0 0 50 50" xml:space="preserve">
<circle fill="#F3392D" cx="25" cy="25" r="25"/>
<path fill="#FFFFFF" d="M16,17h18c0.553,0,1,0.448,1,1l0,0c0,0.552-0.447,1-1,1H16c-0.552,0-1-0.448-1-1l0,0
	C15,17.448,15.448,17,16,17z"/>
<path fill="#FFFFFF" d="M16,24h18c0.553,0,1,0.448,1,1l0,0c0,0.553-0.447,1-1,1H16c-0.552,0-1-0.447-1-1l0,0
	C15,24.448,15.448,24,16,24z"/>
<path fill="#FFFFFF" d="M16,31h18c0.553,0,1,0.447,1,1l0,0c0,0.553-0.447,1-1,1H16c-0.552,0-1-0.447-1-1l0,0
	C15,31.447,15.448,31,16,31z"/>
</svg>
