<?xml version="1.0" encoding="utf-8"?>
<!-- Generator: Adobe Illustrator 16.0.0, SVG Export Plug-In . SVG Version: 6.00 Build 0)  -->
<!DOCTYPE svg PUBLIC "-//W3C//DTD SVG 1.1//EN" "http://www.w3.org/Graphics/SVG/1.1/DTD/svg11.dtd">
<svg version="1.1" id="Layer_1" xmlns="http://www.w3.org/2000/svg" xmlns:xlink="http://www.w3.org/1999/xlink" x="0px" y="0px"
	 width="50px" height="50px" viewBox="0 0 50 50" enable-background="new 0 0 50 50" xml:space="preserve">
<circle fill="#F3392D" cx="25" cy="25" r="25"/>
<path fill="#FFFFFF" d="M17,13h16c2.205,0,4,1.794,4,4v4c0,1.103-0.896,2-2,2h-0.175C34.936,23.313,35,23.649,35,24
	c0,0.769-0.293,1.468-0.77,2c0.477,0.531,0.77,1.23,0.77,2c0,0.352-0.064,0.687-0.175,1H35c1.104,0,2,0.896,2,2v2
	c0,2.205-1.795,4-4,4H17c-2.206,0-4-1.795-4-4v-2c0-1.104,0.897-2,2-2h0.175C15.063,28.687,15,28.352,15,28
	c0-0.77,0.293-1.469,0.77-2C15.293,25.468,15,24.769,15,24c0-0.351,0.064-0.687,0.175-1H15c-1.103,0-2-0.897-2-2v-4
	C13,14.794,14.794,13,17,13z M15,33c0,1.104,0.897,2,2,2h16c1.104,0,2-0.896,2-2l0.001-2H15V33z M32,29c0.551,0,1-0.449,1-1
	s-0.449-1-1-1H18c-0.551,0-1,0.449-1,1s0.449,1,1,1H32z M17,24c0,0.551,0.449,1,1,1h14c0.551,0,1-0.449,1-1s-0.449-1-1-1H18
	C17.449,23,17,23.449,17,24z M15,21h20v-4c0-1.103-0.896-2-2-2H17c-1.103,0-2,0.897-2,2V21z"/>
<path fill="#FFFFFF" d="M29.5,17H30c0.552,0,1,0.448,1,1s-0.448,1-1,1h-0.5c-0.552,0-1-0.448-1-1S28.948,17,29.5,17z"/>
<path fill="#FFFFFF" d="M25,18h0.5c0.552,0,1,0.448,1,1s-0.448,1-1,1H25c-0.552,0-1-0.448-1-1S24.448,18,25,18z"/>
<path fill="#FFFFFF" d="M20,17h0.5c0.552,0,1,0.448,1,1s-0.448,1-1,1H20c-0.552,0-1-0.448-1-1S19.448,17,20,17z"/>
</svg>
