<?xml version="1.0" encoding="utf-8"?>
<!-- Generator: Adobe Illustrator 16.0.0, SVG Export Plug-In . SVG Version: 6.00 Build 0)  -->
<!DOCTYPE svg PUBLIC "-//W3C//DTD SVG 1.1//EN" "http://www.w3.org/Graphics/SVG/1.1/DTD/svg11.dtd">
<svg version="1.1" id="Layer_1" xmlns="http://www.w3.org/2000/svg" xmlns:xlink="http://www.w3.org/1999/xlink" x="0px" y="0px"
	 width="50px" height="50px" viewBox="20 20 50 50" enable-background="new 20 20 50 50" xml:space="preserve">
<g>
	<circle fill="#FF7A00" cx="45" cy="45" r="25"/>
</g>
<path fill="#FFFFFF" d="M31.117,48l0.72-1.689h3.77L36.327,48h0.9l-3.04-7h-0.93l-3.05,7H31.117z M33.607,42.13
	c0.04-0.09,0.07-0.17,0.11-0.27c0.04,0.1,0.07,0.18,0.11,0.27l1.45,3.399h-3.11L33.607,42.13z M38.845,48v-2.061h0.94L41.545,48
	h0.94l-2.04-2.41l1.82-2.39h-0.93l-1.52,2h-0.97v-2h-0.8V48H38.845z M48.219,49.3v-2.04H47.51V43.2h-0.801v4.06h-2.63V43.2h-0.8V48
	h4.16v1.3H48.219z M49.965,48l2.939-3.51V48h0.801v-4.8h-0.68l-2.94,3.51V43.2h-0.8V48H49.965z M55.664,48l1.31-1.68h1.35V48h0.8
	v-4.8h-2.359c-1.17,0-1.801,0.72-1.801,1.56c0,0.67,0.4,1.259,1.15,1.48L54.724,48H55.664z M55.764,44.76c0-0.53,0.4-0.84,1.07-0.84
	h1.489v1.68h-1.489C56.164,45.6,55.764,45.29,55.764,44.76z"/>
</svg>
