<?xml version="1.0" encoding="utf-8"?>
<!-- Generator: Adobe Illustrator 16.0.0, SVG Export Plug-In . SVG Version: 6.00 Build 0)  -->
<!DOCTYPE svg PUBLIC "-//W3C//DTD SVG 1.1//EN" "http://www.w3.org/Graphics/SVG/1.1/DTD/svg11.dtd">
<svg version="1.1" id="Layer_1" xmlns="http://www.w3.org/2000/svg" xmlns:xlink="http://www.w3.org/1999/xlink" x="0px" y="0px"
	 width="30px" height="30px" viewBox="0 0 30 30" enable-background="new 0 0 30 30" xml:space="preserve">
<circle fill="#44433A" cx="15" cy="15" r="15"/>
<path fill="#E5E4D6" d="M21.959,8C23.084,8,24,8.853,24,9.901c0,0.888-0.656,1.636-1.541,1.844l-1.707,7.373V22H9.248v-2.883
	l-1.707-7.373C6.657,11.537,6,10.789,6,9.901C6,8.853,6.916,8,8.041,8c1.126,0,2.042,0.853,2.042,1.901
	c0,0.665-0.368,1.25-0.923,1.59l2.359,1.875l2.347-1.885c-0.546-0.342-0.906-0.922-0.906-1.58C12.959,8.853,13.875,8,15,8
	c1.125,0,2.041,0.853,2.041,1.901c0,0.658-0.36,1.238-0.906,1.58l2.347,1.885l2.359-1.875c-0.556-0.34-0.923-0.925-0.923-1.59
	C19.918,8.853,20.833,8,21.959,8z M22.408,9.145c-0.133-0.068-0.287-0.108-0.449-0.108c-0.512,0-0.928,0.388-0.928,0.864
	c0,0.477,0.416,0.864,0.928,0.864s0.928-0.388,0.928-0.864C22.887,9.577,22.693,9.292,22.408,9.145z M15.928,9.901
	c0-0.476-0.416-0.864-0.928-0.864s-0.928,0.388-0.928,0.864c0,0.477,0.416,0.864,0.928,0.864S15.928,10.377,15.928,9.901z
	 M8.969,9.901c0-0.476-0.417-0.864-0.928-0.864c-0.511,0-0.928,0.388-0.928,0.864c0,0.477,0.417,0.864,0.928,0.864
	C8.553,10.765,8.969,10.377,8.969,9.901z M10.361,19.58v1.383h9.278V19.58H10.361z M8.887,12.638l1.367,5.905h9.493L20.104,17H15v-1
	h5.335l0.778-3.362l-2.636,2.095L15,11.939l-3.478,2.794L8.887,12.638z"/>
</svg>
