<?xml version="1.0" encoding="utf-8"?>
<!-- Generator: Adobe Illustrator 16.0.0, SVG Export Plug-In . SVG Version: 6.00 Build 0)  -->
<!DOCTYPE svg PUBLIC "-//W3C//DTD SVG 1.1//EN" "http://www.w3.org/Graphics/SVG/1.1/DTD/svg11.dtd">
<svg version="1.1" id="Layer_1" xmlns="http://www.w3.org/2000/svg" xmlns:xlink="http://www.w3.org/1999/xlink" x="0px" y="0px"
	 width="30px" height="30px" viewBox="0 0 30 30" enable-background="new 0 0 30 30" xml:space="preserve">
<circle fill="#FFFFFF" cx="15" cy="15" r="15"/>
<path fill="#F3392D" d="M23.873,13.127c-0.934-0.383-2.154-0.598-3.445-0.598c-0.455,0-0.934,0.024-1.363,0.072v-2.465
	c0-0.718-0.6-1.363-1.651-1.794c-0.933-0.383-2.153-0.599-3.445-0.599s-2.512,0.216-3.444,0.599
	C9.829,8.629,9.352,8.988,9.087,9.395c0.431,0.646,0.646,1.411,0.67,2.201c0.024,0.024,0.048,0.048,0.072,0.048v-0.072
	c0.19,0.12,0.431,0.239,0.67,0.335c0.933,0.383,2.153,0.599,3.444,0.599c1.293,0,2.513-0.216,3.445-0.599
	c0.264-0.096,0.479-0.215,0.67-0.335v1.196c-0.406,0.096-0.766,0.215-1.101,0.335c-0.646,0.263-1.124,0.622-1.388,1.005
	c0.525,1.22,0.502,2.608,0.525,3.923c0,0.838-0.119,1.363-0.525,1.818c0.264,0.383,0.742,0.741,1.388,1.006
	c0.933,0.383,2.153,0.598,3.444,0.598c1.293,0,2.514-0.215,3.445-0.598c1.077-0.433,1.651-1.078,1.651-1.795v-4.14
	C25.523,14.204,24.949,13.582,23.873,13.127z M17.055,11.022c-0.813,0.334-1.914,0.526-3.087,0.526
	c-1.172,0-2.272-0.191-3.086-0.526c-0.622-0.264-1.053-0.623-1.053-0.886c0-0.263,0.407-0.622,1.053-0.885
	c0.813-0.335,1.914-0.526,3.086-0.526c1.173,0,2.273,0.191,3.087,0.526c0.646,0.263,1.053,0.622,1.053,0.885
	C18.105,10.399,17.676,10.758,17.055,11.022z M24.543,19.084c0,0.287-0.407,0.623-1.053,0.887c-0.814,0.334-1.914,0.525-3.088,0.525
	c-1.172,0-2.271-0.191-3.086-0.525c-0.646-0.264-1.053-0.623-1.053-0.887v-2.703c0.023,0,0.023,0.023,0.049,0.023
	c0.19,0.119,0.405,0.216,0.621,0.312c0.934,0.384,2.153,0.599,3.444,0.599c1.293,0,2.513-0.215,3.445-0.599
	c0.264-0.096,0.479-0.216,0.67-0.335v2.703H24.543z M23.514,15.807c-0.813,0.336-1.914,0.526-3.086,0.526
	c-1.006,0-1.963-0.144-2.729-0.383c-0.119-0.048-0.238-0.071-0.358-0.12c-0.335-0.143-0.622-0.311-0.813-0.478
	c-0.168-0.144-0.238-0.287-0.238-0.407c0-0.287,0.406-0.622,1.053-0.885c0.217-0.096,0.479-0.167,0.741-0.239
	c0.312-0.072,0.623-0.144,0.981-0.191c0.431-0.048,0.886-0.096,1.363-0.096c1.172,0,2.272,0.191,3.086,0.526
	c0.646,0.263,1.053,0.622,1.053,0.885C24.543,15.208,24.136,15.543,23.514,15.807z"/>
<path fill="#F3392D" d="M6,14.921v4.14c0,0.717,0.598,1.362,1.65,1.795c0.934,0.383,2.154,0.598,3.445,0.598
	c1.293,0,2.512-0.215,3.445-0.598c1.077-0.433,1.65-1.078,1.65-1.795v-2.488c0.024,0,0.072,0,0.097,0
	c-0.024-0.119-0.024-0.239-0.048-0.383c-0.023-0.191,0-0.406-0.023-0.599v-0.024h-0.023v-0.646c0-0.718-0.6-1.364-1.651-1.794
	c-0.335-0.144-0.718-0.263-1.101-0.335l-0.981-0.167c-0.431-0.048-0.885-0.072-1.364-0.072c-1.291,0-2.512,0.215-3.445,0.598
	C6.598,13.582,6,14.204,6,14.921z M6.98,16.381c0.191,0.119,0.432,0.239,0.67,0.335c0.934,0.384,2.154,0.599,3.445,0.599
	c1.293,0,2.512-0.215,3.445-0.599c0.239-0.096,0.455-0.19,0.622-0.312c0.024,0,0.024-0.023,0.048-0.023v2.703
	c0,0.287-0.406,0.623-1.053,0.887c-0.813,0.334-1.914,0.525-3.086,0.525s-2.273-0.191-3.086-0.525
	c-0.646-0.264-1.053-0.623-1.053-0.887v-2.703H6.98z M6.98,14.921c0-0.287,0.408-0.622,1.054-0.885
	c0.813-0.335,1.914-0.526,3.086-0.526c0.479,0,0.933,0.024,1.364,0.096c0.334,0.048,0.67,0.12,0.98,0.191
	c0.264,0.072,0.502,0.144,0.742,0.239c0.646,0.263,1.053,0.622,1.053,0.885c0,0.12-0.096,0.263-0.238,0.407
	c-0.191,0.167-0.455,0.335-0.813,0.479c-0.12,0.049-0.239,0.096-0.358,0.119c-0.767,0.264-1.724,0.383-2.729,0.383
	c-1.172,0-2.273-0.19-3.086-0.524C7.389,15.543,6.98,15.208,6.98,14.921z"/>
<path fill="#F3392D" d="M9.805,11.572c0.19,0.12,0.43,0.239,0.67,0.335c0.933,0.383,2.152,0.599,3.444,0.599
	s2.513-0.216,3.446-0.599c0.238-0.096,0.453-0.191,0.621-0.311c0.023,0,0.023-0.024,0.049-0.024v1.459
	c0.334-0.024,0.646-0.096,0.98-0.144v-1.101c0.022,0,0-0.981,0-0.981v-0.67c0-0.718-0.599-1.363-1.65-1.794
	c-0.336-0.144-0.719-0.264-1.102-0.335l-0.98-0.168c-0.432-0.071-0.909-0.096-1.364-0.096c-1.292,0-2.512,0.216-3.444,0.599
	c-1.078,0.431-1.651,1.076-1.651,1.794v2.919c0.311-0.096,0.646-0.167,0.981-0.191V11.572z M10.833,9.251
	c0.813-0.335,1.914-0.526,3.086-0.526c0.479,0,0.933,0.023,1.364,0.096c0.335,0.048,0.67,0.119,0.98,0.191
	c0.264,0.048,0.502,0.144,0.741,0.239c0.646,0.263,1.054,0.622,1.054,0.885c0,0.12-0.097,0.263-0.24,0.407
	c-0.19,0.167-0.453,0.334-0.813,0.479c-0.119,0.047-0.238,0.095-0.359,0.119c-0.766,0.263-1.722,0.383-2.727,0.383
	c-1.172,0-2.273-0.191-3.086-0.526c-0.646-0.263-1.053-0.622-1.053-0.885C9.805,9.849,10.211,9.514,10.833,9.251z"/>
<path fill="#F3392D" d="M19.975,13.758c-0.041,0.205-0.235,0.363-0.308,0.407l0.005-0.002l0.486,0.858
	c0.064-0.037,0.631-0.381,0.771-1.05c0.065-0.309,0.059-0.797-0.353-1.368c-0.11-0.153-0.231-0.374-0.191-0.552
	c0.046-0.188,0.263-0.307,0.265-0.309l-0.006,0.003l-0.427-0.892c-0.063,0.031-0.622,0.32-0.78,0.951
	c-0.109,0.442,0.008,0.906,0.348,1.38C19.943,13.403,20.006,13.596,19.975,13.758z"/>
<path fill="#F3392D" d="M21.579,12.189c-0.041,0.205-0.235,0.363-0.308,0.407l0.006-0.002l0.486,0.858
	c0.063-0.037,0.629-0.381,0.771-1.05c0.065-0.309,0.058-0.797-0.353-1.368c-0.111-0.153-0.232-0.374-0.19-0.552
	c0.044-0.188,0.262-0.307,0.264-0.309l-0.006,0.003l-0.426-0.891c-0.063,0.031-0.624,0.321-0.781,0.951
	c-0.108,0.442,0.008,0.906,0.349,1.38C21.548,11.834,21.611,12.027,21.579,12.189z"/>
<path fill="#F3392D" d="M12.796,8.973c-0.041,0.204-0.235,0.363-0.307,0.406l0.005-0.002l0.486,0.858
	c0.064-0.037,0.631-0.381,0.771-1.05c0.066-0.309,0.059-0.797-0.352-1.368c-0.11-0.153-0.233-0.374-0.191-0.552
	c0.044-0.188,0.262-0.307,0.264-0.308L13.467,6.96l-0.426-0.892c-0.063,0.031-0.624,0.32-0.781,0.951
	c-0.109,0.441,0.008,0.905,0.348,1.379C12.766,8.618,12.829,8.811,12.796,8.973z"/>
<path fill="#F3392D" d="M14.4,7.404c-0.041,0.205-0.234,0.363-0.307,0.407L14.1,7.808l0.486,0.858
	c0.064-0.037,0.63-0.382,0.771-1.05c0.065-0.309,0.058-0.797-0.353-1.368c-0.11-0.153-0.233-0.374-0.19-0.552
	c0.043-0.188,0.262-0.307,0.264-0.309L15.072,5.39L14.646,4.5c-0.063,0.031-0.625,0.321-0.781,0.951
	c-0.11,0.442,0.007,0.906,0.347,1.38C14.37,7.049,14.434,7.242,14.4,7.404z"/>
</svg>
