<?xml version="1.0" encoding="utf-8"?>
<!-- Generator: Adobe Illustrator 16.0.0, SVG Export Plug-In . SVG Version: 6.00 Build 0)  -->
<!DOCTYPE svg PUBLIC "-//W3C//DTD SVG 1.1//EN" "http://www.w3.org/Graphics/SVG/1.1/DTD/svg11.dtd">
<svg version="1.1" id="Layer_1" xmlns="http://www.w3.org/2000/svg" xmlns:xlink="http://www.w3.org/1999/xlink" x="0px" y="0px"
	 width="30px" height="30px" viewBox="0 0 30 30" enable-background="new 0 0 30 30" xml:space="preserve">
<circle fill="#45443B" cx="15" cy="15" r="15"/>
<path fill="#E5E4D6" d="M12.545,9.818c0-0.237-0.463-0.431-1.034-0.431c-0.57,0-1.033,0.193-1.033,0.431
	c0,0.238,0.463,0.431,1.033,0.431C12.083,10.249,12.545,10.056,12.545,9.818z"/>
<path fill="#E5E4D6" d="M22.213,13.054c-1.003-0.413-2.325-0.64-3.723-0.64c-0.504,0-0.997,0.029-1.469,0.086V9.812
	c0-0.776-0.635-1.463-1.787-1.938c-1.003-0.413-2.326-0.64-3.724-0.64c-1.398,0-2.72,0.227-3.724,0.64C6.635,8.348,6,9.036,6,9.812
	v4.479c0,0.775,0.635,1.465,1.787,1.938c1.003,0.413,2.326,0.641,3.724,0.641c0.503,0,0.997-0.029,1.469-0.088v2.689
	c0,0.775,0.634,1.464,1.787,1.938c1.004,0.412,2.326,0.64,3.725,0.64c1.397,0,2.72-0.228,3.723-0.64
	C23.365,20.935,24,20.246,24,19.471v-4.48C24,14.215,23.365,13.527,22.213,13.054z M22.945,19.471c0,0.301-0.444,0.678-1.133,0.961
	c-0.879,0.361-2.059,0.56-3.322,0.56c-1.265,0-2.445-0.198-3.324-0.56c-0.688-0.283-1.132-0.66-1.132-0.961v-2.914
	c0.017,0.011,0.035,0.021,0.053,0.033c0.201,0.122,0.428,0.235,0.679,0.339c1.004,0.413,2.326,0.64,3.725,0.64
	c1.397,0,2.72-0.227,3.723-0.64c0.274-0.112,0.519-0.237,0.732-0.372V19.471z M22.945,14.99c0,0.301-0.444,0.678-1.133,0.961
	c-0.879,0.361-2.059,0.561-3.322,0.561c-1.092,0-2.119-0.148-2.945-0.422c-0.132-0.043-0.258-0.09-0.379-0.139
	c-0.369-0.152-0.668-0.331-0.866-0.511c-0.171-0.155-0.266-0.31-0.266-0.45c0-0.299,0.445-0.676,1.132-0.959
	c0.245-0.101,0.514-0.189,0.801-0.264c0.329-0.085,0.683-0.154,1.055-0.203c0.467-0.062,0.961-0.094,1.469-0.094
	c1.264,0,2.443,0.199,3.322,0.561C22.501,14.314,22.945,14.691,22.945,14.99z M8.187,8.852c0.879-0.362,2.06-0.561,3.323-0.561
	c1.264,0,2.444,0.199,3.323,0.561c0.688,0.283,1.133,0.66,1.133,0.96c0,0.301-0.445,0.677-1.133,0.96
	c-0.879,0.361-2.059,0.56-3.323,0.56c-1.264,0-2.444-0.199-3.323-0.56c-0.688-0.283-1.132-0.66-1.132-0.96
	C7.055,9.511,7.499,9.134,8.187,8.852z M11.51,15.813c-1.264,0-2.444-0.199-3.323-0.561c-0.688-0.283-1.132-0.66-1.132-0.961v-2.914
	c0.214,0.135,0.458,0.26,0.732,0.372c1.003,0.413,2.326,0.64,3.724,0.64c1.398,0,2.721-0.227,3.724-0.64
	c0.273-0.112,0.519-0.237,0.732-0.372v1.304c-0.435,0.099-0.839,0.224-1.201,0.373c-1.152,0.474-1.787,1.161-1.787,1.937v0.728
	C12.512,15.779,12.018,15.813,11.51,15.813z"/>
<path fill="#E5E4D6" d="M17.455,14.986c0,0.237,0.48,0.43,1.076,0.43c0.594,0,1.076-0.192,1.076-0.43
	c0-0.238-0.482-0.432-1.076-0.432C17.936,14.555,17.455,14.748,17.455,14.986z"/>
</svg>
