<svg width="30" height="30" viewBox="0 0 30 30" fill="none" xmlns="http://www.w3.org/2000/svg">
<circle cx="15" cy="15" r="15" fill="#F9F9F6"/>
<path d="M17.215 11.2039C17.215 11.0055 16.8183 10.8292 16.3334 10.8292C15.8486 10.8292 15.4519 10.9835 15.4519 11.2039C15.4519 11.4022 15.8486 11.5785 16.3334 11.5785C16.8183 11.5785 17.215 11.4022 17.215 11.2039Z" fill="#DC3127"/>
<path d="M25.4573 13.9587C24.5978 13.6061 23.4739 13.4077 22.2838 13.4077C21.8651 13.4077 21.4243 13.4298 21.0276 13.4738V11.2039C21.0276 10.5427 20.4766 9.94766 19.5069 9.55096C18.6474 9.19835 17.5235 9 16.3334 9C15.1433 9 14.0193 9.19835 13.1598 9.55096C12.1681 9.94766 11.6392 10.5427 11.6392 11.2039V14.0028C11.9257 13.8926 12.2342 13.8044 12.5427 13.7824V12.5262C12.719 12.6364 12.9394 12.7466 13.1598 12.8347C14.0193 13.1873 15.1433 13.3857 16.3334 13.3857C17.5235 13.3857 18.6474 13.1873 19.5069 12.8347C19.7494 12.7466 19.9477 12.6364 20.124 12.5262V13.6281C19.7494 13.7163 19.4188 13.8264 19.1102 13.9366C18.2287 14.2893 17.6998 14.8182 17.6116 15.3912C17.7438 16.1405 17.7659 16.8457 17.6336 17.6391C17.6336 17.6832 17.6116 17.7052 17.6116 17.7273V19.4022C17.6116 20.0634 18.1626 20.6584 19.1323 21.0551C19.9918 21.4077 21.1157 21.6061 22.3058 21.6061C23.4959 21.6061 24.6199 21.4077 25.4794 21.0551C26.4711 20.6584 27 20.0634 27 19.4022V15.6116C26.978 14.9504 26.4491 14.3774 25.4573 13.9587ZM19.1763 12.0193C18.427 12.3278 17.4133 12.5041 16.3334 12.5041C15.2535 12.5041 14.2397 12.3278 13.4904 12.0193C12.8954 11.7769 12.5207 11.4463 12.5207 11.2039C12.5207 10.9614 12.8954 10.6309 13.4904 10.3884C14.2397 10.0799 15.2535 9.90358 16.3334 9.90358C17.4133 9.90358 18.427 10.0799 19.1763 10.3884C19.7714 10.6309 20.146 10.9614 20.146 11.2039C20.146 11.4463 19.7494 11.7769 19.1763 12.0193ZM26.0965 19.4463C26.0965 19.7107 25.7218 20.0193 25.1268 20.2617C24.3774 20.5702 23.3637 20.7466 22.2838 20.7466C21.2039 20.7466 20.1901 20.5702 19.4408 20.2617C18.8458 20.0193 18.4711 19.6887 18.4711 19.4463V16.9559C18.4932 16.9559 18.4932 16.978 18.5152 16.978C18.6915 17.0882 18.8898 17.1763 19.0882 17.2645C19.9477 17.6171 21.0717 17.8154 22.2617 17.8154C23.4518 17.8154 24.5758 17.6171 25.4353 17.2645C25.6777 17.1763 25.8761 17.0661 26.0524 16.9559V19.4463H26.0965ZM25.1268 16.427C24.3774 16.7355 23.3637 16.9118 22.2838 16.9118C21.3582 16.9118 20.4766 16.7796 19.7714 16.5592C19.6612 16.5152 19.551 16.4931 19.4408 16.449C19.1323 16.3168 18.8678 16.1625 18.6915 16.0083C18.5372 15.876 18.4711 15.7438 18.4711 15.6336C18.4711 15.3691 18.8458 15.0606 19.4408 14.8182C19.6392 14.73 19.8816 14.6639 20.124 14.5978C20.4105 14.5317 20.697 14.4656 21.0276 14.4215C21.4243 14.3774 21.843 14.3333 22.2838 14.3333C23.3637 14.3333 24.3774 14.5096 25.1268 14.8182C25.7218 15.0606 26.0965 15.3912 26.0965 15.6336C26.0965 15.876 25.6998 16.1846 25.1268 16.427Z" fill="#DC3127"/>
<path d="M21.4021 15.6116C21.4021 15.8099 21.8208 15.9863 22.3277 15.9863C22.8346 15.9863 23.2533 15.832 23.2533 15.6116C23.2533 15.4132 22.8346 15.2369 22.3277 15.2369C21.8208 15.2369 21.4021 15.4132 21.4021 15.6116Z" fill="#DC3127"/>
<path d="M8.99463 15.6115V19.4242C8.99463 20.0853 9.54559 20.6804 10.5153 21.0771C11.3748 21.4297 12.4988 21.628 13.6888 21.628C14.8789 21.628 16.0029 21.4297 16.8624 21.0771C17.8541 20.6804 18.3831 20.0853 18.3831 19.4242V17.1322C18.4051 17.1322 18.4492 17.1322 18.4712 17.1322C18.4492 17.022 18.4492 16.9118 18.4271 16.7795C18.4051 16.6032 18.4271 16.4049 18.4051 16.2286V16.2065H18.3831V15.6115C18.3831 14.9503 17.8321 14.3553 16.8624 13.9586C16.5539 13.8264 16.2012 13.7162 15.8486 13.6501L14.945 13.4958C14.5483 13.4517 14.1296 13.4297 13.6888 13.4297C12.4988 13.4297 11.3748 13.628 10.5153 13.9807C9.54559 14.3773 8.99463 14.9503 8.99463 15.6115ZM9.89821 16.9559C10.0745 17.0661 10.2949 17.1762 10.5153 17.2644C11.3748 17.617 12.4988 17.8154 13.6888 17.8154C14.8789 17.8154 16.0029 17.617 16.8624 17.2644C17.0828 17.1762 17.2811 17.0881 17.4354 16.9779C17.4574 16.9779 17.4574 16.9559 17.4795 16.9559V19.4462C17.4795 19.7107 17.1048 20.0192 16.5098 20.2616C15.7605 20.5702 14.7467 20.7465 13.6668 20.7465C12.5869 20.7465 11.5731 20.5702 10.8238 20.2616C10.2288 20.0192 9.85413 19.6886 9.85413 19.4462V16.9559H9.89821ZM9.89821 15.6115C9.89821 15.347 10.2729 15.0385 10.8679 14.7961C11.6172 14.4875 12.631 14.3112 13.7109 14.3112C14.1517 14.3112 14.5704 14.3333 14.9671 14.3994C15.2756 14.4435 15.5842 14.5096 15.8707 14.5757C16.1131 14.6418 16.3335 14.7079 16.5539 14.7961C17.1489 15.0385 17.5236 15.3691 17.5236 15.6115C17.5236 15.7217 17.4354 15.8539 17.3032 15.9862C17.1269 16.1404 16.8844 16.2947 16.5539 16.4269C16.4437 16.471 16.3335 16.5151 16.2233 16.5371C15.518 16.7795 14.6365 16.8897 13.7109 16.8897C12.631 16.8897 11.6172 16.7134 10.8679 16.4049C10.2729 16.1845 9.89821 15.876 9.89821 15.6115Z" fill="#DC3127"/>
<path d="M13.6666 15.2369C13.1597 15.2369 12.741 15.3912 12.741 15.6116C12.741 15.8099 13.1597 15.9863 13.6666 15.9863C14.1735 15.9863 14.5922 15.832 14.5922 15.6116C14.5702 15.4132 14.1735 15.2369 13.6666 15.2369Z" fill="#DC3127"/>
<path d="M12.4545 12.3939C12.4325 12.2176 12.4545 12.0193 12.4325 11.843V11.8209H12.4105V11.2039C12.4105 10.5427 11.8595 9.94766 10.8898 9.55096C10.5813 9.41873 10.2286 9.30854 9.87603 9.24242L8.95041 9.06612C8.55372 9.02204 8.13499 9 7.69421 9C6.50413 9 5.38017 9.19835 4.52066 9.55096C3.55096 9.94766 3 10.5427 3 11.2039V15.0165C3 15.6777 3.55096 16.2727 4.52066 16.6694C5.38017 17.022 6.50413 17.2204 7.69421 17.2204C8.26722 17.2204 8.81818 17.1763 9.34711 17.0882C9.34711 16.7796 9.32507 16.4931 9.30303 16.1846C8.79614 16.2727 8.26722 16.3168 7.69421 16.3168C6.61432 16.3168 5.60055 16.1405 4.85124 15.832C4.2562 15.5895 3.88154 15.259 3.88154 15.0165V12.5262C4.05785 12.6364 4.27824 12.7466 4.49862 12.8347C5.35813 13.1873 6.48209 13.3857 7.67218 13.3857C8.86226 13.3857 9.98623 13.1873 10.8457 12.8347C11.0661 12.7466 11.2645 12.6584 11.4187 12.5482C11.4408 12.5482 11.4408 12.5262 11.4628 12.5262V14.0468C11.7493 13.9366 12.0579 13.8485 12.3664 13.8044V12.7466C12.3884 12.7466 12.4325 12.7466 12.4545 12.7466C12.4766 12.6143 12.4766 12.5041 12.4545 12.3939ZM11.2645 11.5785C11.0882 11.7328 10.8457 11.8871 10.5152 12.0193C10.405 12.0634 10.2948 12.1074 10.1846 12.1295C9.47934 12.3719 8.5978 12.4821 7.67218 12.4821C6.59229 12.4821 5.57851 12.3058 4.8292 11.9972C4.23416 11.7548 3.8595 11.4242 3.8595 11.1818C3.8595 10.9174 4.23416 10.6088 4.8292 10.3664C5.57851 10.0579 6.59229 9.88154 7.67218 9.88154C8.11295 9.88154 8.53168 9.90358 8.92837 9.9697C9.23691 10.0138 9.54545 10.0799 9.83196 10.146C10.0744 10.2121 10.2948 10.2782 10.5152 10.3664C11.1102 10.6088 11.4848 10.9394 11.4848 11.1818C11.5069 11.314 11.4187 11.4463 11.2645 11.5785Z" fill="#DC3127"/>
<path d="M7.6722 10.8292C7.16531 10.8292 6.74658 10.9835 6.74658 11.2039C6.74658 11.4022 7.16531 11.5785 7.6722 11.5785C8.17909 11.5785 8.59782 11.4243 8.59782 11.2039C8.57578 10.9835 8.17909 10.8292 7.6722 10.8292Z" fill="#DC3127"/>
</svg>
