<?xml version="1.0" encoding="utf-8"?>
<!-- Generator: Adobe Illustrator 16.0.0, SVG Export Plug-In . SVG Version: 6.00 Build 0)  -->
<!DOCTYPE svg PUBLIC "-//W3C//DTD SVG 1.1//EN" "http://www.w3.org/Graphics/SVG/1.1/DTD/svg11.dtd">
<svg version="1.1" id="Layer_1" xmlns="http://www.w3.org/2000/svg" xmlns:xlink="http://www.w3.org/1999/xlink" x="0px" y="0px"
	 width="50px" height="50px" viewBox="0 0 50 50" enable-background="new 0 0 50 50" xml:space="preserve">
<circle fill="#F3392D" cx="25" cy="25" r="25"/>
<path fill="#FFFFFF" d="M33.104,17.375c-0.01-0.005-0.01-0.016-0.02-0.021c-0.021-0.016-0.037-0.016-0.059-0.026
	C31.484,16.484,29.713,16,27.834,16h-10C14.615,16,12,18.615,12,21.833c0,1.083,0.698,2,1.667,2.349v5.152
	c0,1.838,1.495,3.332,3.333,3.332h16.666c1.84,0,3.334-1.494,3.334-3.332v-2c0.141,0.078,0.281,0.145,0.422,0.223
	c0.131,0.074,0.271,0.109,0.412,0.109c0.145,0,0.285-0.035,0.416-0.109c0.256-0.15,0.416-0.426,0.416-0.723
	C38.666,22.771,36.416,19.229,33.104,17.375z M27.834,17.667c1.266,0,2.463,0.276,3.557,0.745c-0.818,1.38-1.365,2.948-1.646,4.682
	c-1.473-0.255-2.957-0.427-4.463-0.427h-0.448c0.51-2.38,1.551-3.989,2.454-5H27.834z M25.172,17.667
	c-0.833,1.203-1.625,2.849-2.037,5h-4.141c0.511-2.38,1.552-3.989,2.453-5H25.172z M14.5,22.667c-0.458,0-0.833-0.375-0.833-0.833
	c0-2.297,1.87-4.167,4.167-4.167h1.51c-0.833,1.203-1.625,2.849-2.037,5H14.5z M35.334,29.334c0,0.916-0.75,1.666-1.668,1.666H17
	c-0.917,0-1.667-0.75-1.667-1.666v-5h9.948c3.469,0,6.9,0.755,10.053,2.176V29.334z M36.563,25.25
	c-0.047-0.026-0.1-0.047-0.15-0.063c-1.615-0.76-3.297-1.37-5.031-1.787c0.25-1.567,0.744-2.974,1.479-4.198
	c2.1,1.391,3.615,3.599,4.025,6.182C36.781,25.333,36.672,25.297,36.563,25.25z"/>
</svg>
