<svg width="50" height="50" viewBox="0 0 50 50" fill="none" xmlns="http://www.w3.org/2000/svg">
<circle cx="25" cy="25" r="25" fill="#F3392D"/>
<path d="M39.7873 21.8786C38.2321 21.2405 36.1985 20.8817 34.0452 20.8817C33.2875 20.8817 32.49 20.9215 31.7723 21.0013V16.8941C31.7723 15.6978 30.7754 14.6212 29.0208 13.9034C27.4657 13.2654 25.432 12.9065 23.2787 12.9065C21.1254 12.9065 19.0918 13.2654 17.5366 13.9034C16.3802 14.3819 15.5827 14.98 15.144 15.6579C15.8618 16.7346 16.2207 18.0106 16.2606 19.3265C16.3004 19.3664 16.3403 19.4063 16.3802 19.4063V19.2866C16.6992 19.486 17.098 19.6854 17.4967 19.8449C19.0519 20.4829 21.0855 20.8418 23.2388 20.8418C25.3921 20.8418 27.4258 20.4829 28.981 19.8449C29.4196 19.6854 29.7785 19.486 30.0975 19.2866V21.2804C29.4196 21.4399 28.8215 21.6393 28.2632 21.8387C27.1865 22.2773 26.389 22.8755 25.9504 23.5135C26.8277 25.5471 26.7878 27.8599 26.8277 30.0531C26.8277 31.4488 26.6283 32.326 25.9504 33.0837C26.389 33.7217 27.1865 34.3198 28.2632 34.7584C29.8183 35.3965 31.852 35.7553 34.0053 35.7553C36.1586 35.7553 38.1923 35.3965 39.7474 34.7584C41.5418 34.0407 42.4989 32.964 42.4989 31.7678V24.8692C42.5387 23.673 41.5817 22.6362 39.7873 21.8786ZM28.4227 18.3695C27.0669 18.9277 25.2326 19.2467 23.2787 19.2467C21.3248 19.2467 19.4905 18.9277 18.1347 18.3695C17.098 17.9308 16.3802 17.3327 16.3802 16.8941C16.3802 16.4554 17.0581 15.8573 18.1347 15.4187C19.4905 14.8604 21.3248 14.5414 23.2787 14.5414C25.2326 14.5414 27.0669 14.8604 28.4227 15.4187C29.4993 15.8573 30.1772 16.4554 30.1772 16.8941C30.1772 17.3327 29.4595 17.9308 28.4227 18.3695ZM40.9038 31.8076C40.9038 32.2861 40.2259 32.8444 39.1493 33.283C37.7935 33.8413 35.9592 34.1603 34.0053 34.1603C32.0514 34.1603 30.2171 33.8413 28.8613 33.283C27.7847 32.8444 27.1068 32.2463 27.1068 31.8076V27.3017C27.1467 27.3017 27.1467 27.3415 27.1865 27.3415C27.5056 27.5409 27.8644 27.7004 28.2233 27.8599C29.7785 28.4979 31.8121 28.8568 33.9654 28.8568C36.1187 28.8568 38.1524 28.4979 39.7076 27.8599C40.1462 27.7004 40.5051 27.501 40.8241 27.3017V31.8076H40.9038ZM39.1892 26.3446C37.8334 26.9029 35.9991 27.2219 34.0452 27.2219C32.3704 27.2219 30.7754 26.9827 29.4993 26.5839C29.3 26.5041 29.1006 26.4643 28.9012 26.3845C28.3429 26.1453 27.8644 25.8661 27.5454 25.587C27.2663 25.3478 27.1467 25.1085 27.1467 24.9091C27.1467 24.4306 27.8246 23.8723 28.9012 23.4337C29.2601 23.2742 29.6987 23.1546 30.1374 23.035C30.6557 22.9153 31.1741 22.7957 31.7723 22.7159C32.49 22.6362 33.2477 22.5564 34.0452 22.5564C35.9991 22.5564 37.8334 22.8755 39.1892 23.4337C40.2658 23.8723 40.9437 24.4705 40.9437 24.9091C40.9038 25.3478 40.2259 25.906 39.1892 26.3446Z" fill="#FCFCFC"/>
<path d="M10 24.8691V31.7676C10 32.9639 10.9969 34.0405 12.7514 34.7583C14.3066 35.3963 16.3403 35.7552 18.4936 35.7552C20.6468 35.7552 22.6805 35.3963 24.2357 34.7583C26.0301 34.0405 26.9871 32.9639 26.9871 31.7676V27.6205C27.027 27.6205 27.1067 27.6205 27.1466 27.6205C27.1067 27.4211 27.1067 27.2218 27.0669 26.9825C27.027 26.6635 27.0669 26.3046 27.027 25.9856V25.9457H26.9871V24.8691C26.9871 23.6728 25.9902 22.5962 24.2357 21.8784C23.6774 21.6392 23.0394 21.4398 22.4014 21.3201L20.7665 21.041C20.0487 20.9613 19.2911 20.9214 18.4936 20.9214C16.3403 20.9214 14.3066 21.2803 12.7514 21.9183C10.9969 22.636 10 23.6728 10 24.8691ZM11.6349 27.3015C11.9539 27.5009 12.3527 27.7003 12.7514 27.8598C14.3066 28.4978 16.3403 28.8567 18.4936 28.8567C20.6468 28.8567 22.6805 28.4978 24.2357 27.8598C24.6344 27.7003 24.9933 27.5408 25.2724 27.3414C25.3123 27.3414 25.3123 27.3015 25.3522 27.3015V31.8075C25.3522 32.286 24.6743 32.8443 23.5977 33.2829C22.2419 33.8412 20.4076 34.1602 18.4537 34.1602C16.4998 34.1602 14.6655 33.8412 13.3097 33.2829C12.233 32.8443 11.5552 32.2461 11.5552 31.8075V27.3015H11.6349ZM11.6349 24.8691C11.6349 24.3906 12.3128 23.8323 13.3894 23.3937C14.7452 22.8354 16.5795 22.5164 18.5334 22.5164C19.3309 22.5164 20.0886 22.5563 20.8063 22.6759C21.3646 22.7557 21.9229 22.8753 22.4413 22.9949C22.8799 23.1146 23.2787 23.2342 23.6774 23.3937C24.7541 23.8323 25.4319 24.4305 25.4319 24.8691C25.4319 25.0685 25.2724 25.3077 25.0332 25.547C24.7142 25.8261 24.2755 26.1052 23.6774 26.3445C23.478 26.4243 23.2787 26.504 23.0793 26.5439C21.8032 26.9825 20.2082 27.1819 18.5334 27.1819C16.5795 27.1819 14.7452 26.8629 13.3894 26.3046C12.3128 25.9059 11.6349 25.3476 11.6349 24.8691Z" fill="#FCFCFC"/>
<path d="M16.3405 19.2866C16.6595 19.486 17.0582 19.6854 17.457 19.8449C19.0122 20.4829 21.0458 20.8418 23.1991 20.8418C25.3524 20.8418 27.3861 20.4829 28.9412 19.8449C29.34 19.6854 29.6989 19.5259 29.978 19.3265C30.0179 19.3265 30.0179 19.2866 30.0578 19.2866V21.7191C30.616 21.6792 31.1344 21.5595 31.6927 21.4798V19.6455C31.7325 19.6455 31.6927 18.0106 31.6927 18.0106V16.8941C31.6927 15.6978 30.6958 14.6212 28.9412 13.9034C28.383 13.6641 27.745 13.4648 27.1069 13.3451L25.472 13.066C24.7543 12.9464 23.9568 12.9065 23.1991 12.9065C21.0458 12.9065 19.0122 13.2654 17.457 13.9034C15.6626 14.6212 14.7056 15.6978 14.7056 16.8941V21.7589C15.224 21.5994 15.7822 21.4798 16.3405 21.4399V19.2866ZM18.0551 15.4187C19.4109 14.8604 21.2452 14.5414 23.1991 14.5414C23.9966 14.5414 24.7543 14.5813 25.472 14.7009C26.0303 14.7807 26.5886 14.9003 27.1069 15.0199C27.5456 15.0997 27.9443 15.2592 28.3431 15.4187C29.4197 15.8573 30.0976 16.4554 30.0976 16.8941C30.0976 17.0935 29.9381 17.3327 29.6989 17.572C29.3799 17.8511 28.9412 18.1302 28.3431 18.3695C28.1437 18.4492 27.9443 18.529 27.745 18.5689C26.4689 19.0075 24.8739 19.2069 23.1991 19.2069C21.2452 19.2069 19.4109 18.8879 18.0551 18.3296C16.9785 17.891 16.3006 17.2928 16.3006 16.8542C16.3405 16.4156 17.0184 15.8573 18.0551 15.4187Z" fill="#FCFCFC"/>
<path d="M33.2903 22.9298C33.2223 23.2704 32.898 23.5346 32.7788 23.6077L32.7868 23.603L33.5982 25.0342C33.7049 24.9724 34.648 24.398 34.8843 23.284C34.9935 22.7693 34.9803 21.9558 34.2973 21.0047C34.1135 20.749 33.9093 20.3817 33.9788 20.0844C34.0521 19.7706 34.4151 19.5723 34.4189 19.5704L34.4091 19.5753L33.6993 18.0897C33.5937 18.1413 32.6593 18.6239 32.3977 19.6746C32.2146 20.4105 32.4092 21.184 32.9766 21.9739C33.2386 22.3386 33.344 22.6602 33.2903 22.9298Z" fill="#FCFCFC"/>
<path d="M35.9651 20.315C35.8971 20.6557 35.5728 20.9199 35.4536 20.9929L35.4614 20.9882L36.273 22.4195C36.3797 22.3576 37.3228 21.7832 37.5591 20.6692C37.6683 20.1545 37.6551 19.3411 36.9721 18.3899C36.7883 18.1343 36.5839 17.767 36.6536 17.4697C36.7269 17.1558 37.0899 16.9576 37.0935 16.9556L37.0839 16.9606L36.3741 15.475C36.2685 15.5265 35.3341 16.0092 35.0725 17.0598C34.8894 17.7957 35.084 18.5693 35.6514 19.3591C35.9134 19.7239 36.0188 20.0454 35.9651 20.315Z" fill="#FCFCFC"/>
<path d="M21.3274 14.9548C21.2594 15.2955 20.9351 15.5597 20.8159 15.6327L20.8239 15.628L21.6353 17.0592C21.742 16.9974 22.6851 16.423 22.9214 15.309C23.0306 14.7943 23.0174 13.9808 22.3344 13.0297C22.1506 12.7741 21.9464 12.4067 22.0159 12.1094C22.0892 11.7956 22.4522 11.5973 22.456 11.5954L22.4462 11.6004L21.7364 10.1147C21.6308 10.1663 20.6964 10.649 20.4348 11.6996C20.2517 12.4355 20.4463 13.209 21.0137 13.9989C21.2757 14.3636 21.3811 14.6852 21.3274 14.9548Z" fill="#FCFCFC"/>
<path d="M24.0022 12.34C23.9342 12.6807 23.6099 12.9449 23.4907 13.018L23.4985 13.0132L24.3101 14.4445C24.4168 14.3826 25.3599 13.8082 25.5962 12.6942C25.7054 12.1796 25.6922 11.3661 25.0092 10.4149C24.8254 10.1593 24.621 9.79199 24.6907 9.4947C24.764 9.18086 25.127 8.9826 25.1306 8.98066L25.121 8.9856L24.4113 7.5C24.3056 7.55155 23.3712 8.03422 23.1096 9.08485C22.9265 9.82077 23.1211 10.5943 23.6885 11.3841C23.9505 11.7489 24.0559 12.0704 24.0022 12.34Z" fill="#FCFCFC"/>
</svg>
