<?xml version="1.0" encoding="utf-8"?>
<!-- Generator: Adobe Illustrator 16.0.0, SVG Export Plug-In . SVG Version: 6.00 Build 0)  -->
<!DOCTYPE svg PUBLIC "-//W3C//DTD SVG 1.1//EN" "http://www.w3.org/Graphics/SVG/1.1/DTD/svg11.dtd">
<svg version="1.1" id="Layer_1" xmlns="http://www.w3.org/2000/svg" xmlns:xlink="http://www.w3.org/1999/xlink" x="0px" y="0px"
	 width="30px" height="30px" viewBox="0 0 30 30" enable-background="new 0 0 30 30" xml:space="preserve">
<circle fill="#FFFFFF" cx="15" cy="15" r="15"/>
<path fill="#F3392D" d="M12.545,9.818c0-0.237-0.463-0.431-1.033-0.431s-1.033,0.193-1.033,0.431c0,0.238,0.463,0.431,1.033,0.431
	S12.545,10.056,12.545,9.818z"/>
<path fill="#F3392D" d="M22.213,13.054c-1.003-0.413-2.324-0.64-3.723-0.64c-0.504,0-0.997,0.029-1.469,0.086V9.812
	c0-0.776-0.636-1.463-1.787-1.938c-1.004-0.413-2.326-0.64-3.726-0.64c-1.397,0-2.72,0.227-3.723,0.64C6.635,8.348,6,9.036,6,9.812
	v4.479c0,0.776,0.635,1.465,1.787,1.938c1.003,0.414,2.324,0.642,3.723,0.642c0.504,0,0.997-0.029,1.469-0.089v2.689
	c0,0.775,0.636,1.465,1.787,1.938c1.004,0.411,2.326,0.64,3.726,0.64c1.397,0,2.72-0.229,3.723-0.64
	c1.152-0.474,1.787-1.162,1.787-1.938v-4.479C24,14.215,23.365,13.527,22.213,13.054z M22.945,19.471
	c0,0.301-0.444,0.678-1.133,0.961c-0.879,0.361-2.06,0.561-3.322,0.561c-1.266,0-2.445-0.198-3.324-0.561
	c-0.688-0.283-1.133-0.66-1.133-0.961v-2.914c0.018,0.012,0.035,0.021,0.053,0.033c0.201,0.122,0.428,0.235,0.68,0.34
	c1.004,0.412,2.326,0.639,3.726,0.639c1.397,0,2.72-0.227,3.723-0.639c0.274-0.113,0.519-0.238,0.731-0.373V19.471L22.945,19.471z
	 M22.945,14.991c0,0.301-0.444,0.677-1.133,0.96c-0.879,0.361-2.06,0.561-3.322,0.561c-1.092,0-2.119-0.148-2.945-0.422
	c-0.132-0.043-0.258-0.09-0.379-0.139c-0.369-0.152-0.668-0.331-0.866-0.511c-0.171-0.155-0.267-0.31-0.267-0.45
	c0-0.3,0.445-0.677,1.133-0.96c0.245-0.101,0.514-0.188,0.801-0.263c0.329-0.085,0.684-0.154,1.055-0.203
	c0.467-0.062,0.961-0.094,1.47-0.094c1.264,0,2.442,0.199,3.321,0.56C22.501,14.314,22.945,14.691,22.945,14.991z M8.188,8.852
	c0.879-0.362,2.06-0.561,3.322-0.561c1.266,0,2.445,0.199,3.324,0.561c0.688,0.283,1.133,0.66,1.133,0.96
	c0,0.301-0.445,0.677-1.133,0.96c-0.879,0.361-2.061,0.56-3.324,0.56s-2.443-0.199-3.322-0.56c-0.688-0.283-1.133-0.66-1.133-0.96
	C7.055,9.511,7.499,9.134,8.188,8.852z M11.51,15.813c-1.264,0-2.443-0.199-3.322-0.561c-0.688-0.283-1.133-0.66-1.133-0.96v-2.914
	c0.215,0.135,0.459,0.26,0.732,0.372c1.003,0.413,2.324,0.64,3.723,0.64s2.721-0.227,3.725-0.64c0.273-0.112,0.52-0.237,0.732-0.372
	v1.304c-0.435,0.099-0.839,0.224-1.201,0.373c-1.151,0.474-1.787,1.162-1.787,1.937v0.727C12.512,15.779,12.018,15.813,11.51,15.813
	z"/>
<path fill="#F3392D" d="M17.455,14.986c0,0.238,0.48,0.431,1.076,0.431c0.594,0,1.076-0.193,1.076-0.431
	c0-0.238-0.482-0.431-1.076-0.431C17.936,14.555,17.455,14.748,17.455,14.986z"/>
</svg>
