<?xml version="1.0" encoding="utf-8"?>
<!-- Generator: Adobe Illustrator 16.0.0, SVG Export Plug-In . SVG Version: 6.00 Build 0)  -->
<!DOCTYPE svg PUBLIC "-//W3C//DTD SVG 1.1//EN" "http://www.w3.org/Graphics/SVG/1.1/DTD/svg11.dtd">
<svg version="1.1" id="Layer_1" xmlns="http://www.w3.org/2000/svg" xmlns:xlink="http://www.w3.org/1999/xlink" x="0px" y="0px"
	 width="50px" height="50px" viewBox="0 0 50 50" enable-background="new 0 0 50 50" xml:space="preserve">
<circle fill="#F3392D" cx="25" cy="25" r="25"/>
<path fill="#FFFFFF" d="M37.457,33.334h-3.751h-1.71H20.515h-1.71h-3.751h-1.71h-0.676c-0.552,0-1-0.448-1-1v-4.813
	c0-0.553,0.448-1,1-1h1.315c-0.736-0.971-1.186-2.224-1.186-3.599v-8.589c0-0.552,0.448-1,1-1h8.096c0.552,0,1,0.448,1,1v8.595
	c0,1.375-0.45,2.628-1.186,3.599h7.058v-0.514c-1.209-0.604-2.246-1.53-3.027-2.706c-0.832-1.253-1.311-2.706-1.402-4.229
	l-0.017-0.007v-2.136c0-0.552,0.448-1,1-1h13.41c0.553,0,1,0.448,1,1v1.5v0.02c0,0.025,0,0.045,0,0.071
	c0,1.722-0.49,3.374-1.42,4.775c-0.781,1.176-1.818,2.102-3.027,2.706v0.515H39c0.553,0,1,0.447,1,1v4.813c0,0.552-0.447,1-1,1
	h-0.688H37.457z M21.182,22.646H19.5c-0.532,0-0.964-0.431-0.964-0.964c0-0.532,0.432-0.964,0.964-0.964h1.682v-1.838H19.5
	c-0.532,0-0.964-0.432-0.964-0.964s0.432-0.964,0.964-0.964h1.682v-1.69h-6.676v7.667c0,1.986,1.431,3.599,3.192,3.599h0.291
	c1.762,0,3.193-1.613,3.193-3.599V22.646z M37.908,19.722c0.074-0.392,0.107-0.791,0.107-1.202v-0.655H26.039l-0.006,0.655
	c0,0.405,0.039,0.81,0.107,1.202H37.908z M37.224,21.649H26.82c0.678,1.253,1.756,2.262,3.084,2.796l0.569,0.225v1.852h3.096V24.67
	l0.57-0.225C35.468,23.912,36.545,22.903,37.224,21.649z M38.289,28.449H13.377v2.956h18.625h6.287V28.449z"/>
</svg>
