<?xml version="1.0" encoding="utf-8"?>
<!-- Generator: Adobe Illustrator 16.0.0, SVG Export Plug-In . SVG Version: 6.00 Build 0)  -->
<!DOCTYPE svg PUBLIC "-//W3C//DTD SVG 1.1//EN" "http://www.w3.org/Graphics/SVG/1.1/DTD/svg11.dtd">
<svg version="1.1" id="Layer_1" xmlns="http://www.w3.org/2000/svg" xmlns:xlink="http://www.w3.org/1999/xlink" x="0px" y="0px"
	 width="50px" height="50px" viewBox="0 0 50 50" enable-background="new 0 0 50 50" xml:space="preserve">
<circle fill="#F3392D" cx="25" cy="25" r="25"/>
<path fill="#FFFFFF" d="M36.598,13.333c1.876,0,3.402,1.421,3.402,3.168c0,1.479-1.094,2.725-2.568,3.072l-2.844,12.287v4.805
	H15.413v-4.805l-2.844-12.287C11.094,19.227,10,17.981,10,16.502c0-1.747,1.526-3.168,3.402-3.168c1.875,0,3.402,1.421,3.402,3.168
	c0,1.107-0.613,2.083-1.539,2.649l3.933,3.125l3.911-3.142c-0.911-0.569-1.511-1.537-1.511-2.633c0-1.747,1.526-3.168,3.402-3.168
	s3.402,1.421,3.402,3.168c0,1.096-0.602,2.064-1.512,2.633l3.912,3.142l3.932-3.125c-0.926-0.567-1.539-1.542-1.539-2.649
	C33.195,14.755,34.723,13.333,36.598,13.333z M38.145,16.502c0-0.794-0.693-1.44-1.547-1.44c-0.853,0-1.547,0.646-1.547,1.44
	c0,0.794,0.694,1.44,1.547,1.44C37.451,17.942,38.145,17.296,38.145,16.502z M26.547,16.502c0-0.794-0.694-1.44-1.547-1.44
	s-1.546,0.646-1.546,1.44c0,0.794,0.694,1.44,1.546,1.44S26.547,17.296,26.547,16.502z M14.949,16.502
	c0-0.794-0.694-1.44-1.546-1.44c-0.853,0-1.547,0.646-1.547,1.44c0,0.794,0.694,1.44,1.547,1.44
	C14.255,17.942,14.949,17.296,14.949,16.502z M17.268,32.634v2.305h15.464v-2.305H17.268z M14.812,21.063l2.278,9.842H32.91
	l0.596-2.571H25v-1.668h8.892l1.297-5.603l-4.394,3.491L25,19.898l-5.795,4.656L14.812,21.063z"/>
</svg>
