<?xml version="1.0" encoding="utf-8"?>
<!-- Generator: Adobe Illustrator 16.0.0, SVG Export Plug-In . SVG Version: 6.00 Build 0)  -->
<!DOCTYPE svg PUBLIC "-//W3C//DTD SVG 1.1//EN" "http://www.w3.org/Graphics/SVG/1.1/DTD/svg11.dtd">
<svg version="1.1" id="Layer_1" xmlns="http://www.w3.org/2000/svg" xmlns:xlink="http://www.w3.org/1999/xlink" x="0px" y="0px"
	 width="50px" height="50px" viewBox="0 0 50 50" enable-background="new 0 0 50 50" xml:space="preserve">
<circle fill="#F3392D" cx="25" cy="25" r="25"/>
<path fill="#FFFFFF" stroke="#FFFFFF" stroke-width="0.3" d="M29.268,19.251c0-0.292-0.586-0.553-1.301-0.553
	s-1.301,0.228-1.301,0.553c0,0.292,0.586,0.553,1.301,0.553S29.268,19.543,29.268,19.251z"/>
<path fill="#FFFFFF" stroke="#FFFFFF" stroke-width="0.3" d="M41.426,23.315c-1.268-0.521-2.926-0.813-4.682-0.813
	c-0.617,0-1.268,0.033-1.854,0.098v-3.349c0-0.975-0.813-1.853-2.242-2.438C31.38,16.292,29.723,16,27.967,16
	s-3.414,0.292-4.682,0.813c-1.463,0.585-2.243,1.463-2.243,2.438v4.129c0.423-0.163,0.878-0.293,1.333-0.325v-1.853
	c0.26,0.163,0.585,0.325,0.91,0.455c1.268,0.52,2.926,0.813,4.682,0.813s3.413-0.292,4.682-0.813c0.357-0.13,0.65-0.292,0.91-0.455
	v1.625c-0.553,0.13-1.041,0.292-1.496,0.455c-1.301,0.52-2.08,1.3-2.211,2.146c0.195,1.105,0.229,2.146,0.033,3.316
	c0,0.064-0.033,0.098-0.033,0.13v2.471c0,0.976,0.813,1.853,2.244,2.438c1.268,0.52,2.926,0.813,4.682,0.813
	c1.755,0,3.413-0.293,4.681-0.813c1.463-0.586,2.243-1.463,2.243-2.438v-5.592C43.669,24.778,42.889,23.932,41.426,23.315z
	 M32.16,20.454c-1.105,0.456-2.601,0.715-4.193,0.715c-1.594,0-3.088-0.26-4.194-0.715c-0.878-0.357-1.431-0.845-1.431-1.203
	s0.553-0.845,1.431-1.203c1.105-0.455,2.6-0.715,4.194-0.715c1.593,0,3.088,0.26,4.193,0.715c0.878,0.357,1.431,0.845,1.431,1.203
	S33.006,20.096,32.16,20.454z M42.368,31.41c0,0.39-0.552,0.845-1.431,1.202c-1.105,0.456-2.6,0.716-4.193,0.716
	c-1.593,0-3.088-0.26-4.193-0.716c-0.878-0.357-1.431-0.845-1.431-1.202v-3.674c0.032,0,0.032,0.032,0.065,0.032
	c0.26,0.163,0.553,0.292,0.845,0.423c1.269,0.52,2.926,0.813,4.682,0.813c1.755,0,3.413-0.293,4.681-0.813
	c0.357-0.131,0.65-0.293,0.91-0.455v3.674H42.368z M40.938,26.955c-1.105,0.455-2.6,0.716-4.193,0.716
	c-1.365,0-2.666-0.194-3.706-0.521c-0.163-0.064-0.325-0.098-0.487-0.162c-0.455-0.195-0.846-0.422-1.105-0.65
	c-0.228-0.195-0.325-0.391-0.325-0.553c0-0.39,0.553-0.845,1.431-1.203c0.293-0.13,0.65-0.228,1.008-0.325
	c0.422-0.097,0.845-0.195,1.332-0.26c0.586-0.065,1.203-0.13,1.854-0.13c1.594,0,3.088,0.26,4.193,0.715
	c0.879,0.357,1.431,0.845,1.431,1.203S41.783,26.598,40.938,26.955z"/>
<path fill="#FFFFFF" stroke="#FFFFFF" stroke-width="0.3" d="M35.443,25.753c0,0.292,0.618,0.553,1.365,0.553
	c0.748,0,1.366-0.228,1.366-0.553c0-0.292-0.618-0.553-1.366-0.553C36.062,25.2,35.443,25.46,35.443,25.753z"/>
<path fill="#FFFFFF" stroke="#FFFFFF" stroke-width="0.3" d="M17.141,25.753v5.624c0,0.976,0.813,1.854,2.243,2.438
	c1.268,0.521,2.926,0.813,4.682,0.813c1.755,0,3.413-0.292,4.681-0.813c1.463-0.585,2.243-1.463,2.243-2.438v-3.381
	c0.033,0,0.098,0,0.13,0c-0.032-0.162-0.032-0.325-0.065-0.52c-0.031-0.261,0-0.553-0.031-0.813v-0.032H30.99v-0.878
	c0-0.975-0.813-1.853-2.243-2.438c-0.455-0.195-0.976-0.358-1.495-0.456l-1.333-0.228c-0.585-0.065-1.203-0.097-1.853-0.097
	c-1.756,0-3.414,0.292-4.682,0.813C17.954,23.932,17.141,24.778,17.141,25.753z M18.474,27.736c0.26,0.162,0.585,0.324,0.91,0.455
	c1.268,0.52,2.926,0.813,4.682,0.813c1.755,0,3.413-0.293,4.681-0.813c0.325-0.131,0.618-0.26,0.845-0.423
	c0.033,0,0.033-0.032,0.065-0.032v3.674c0,0.39-0.553,0.845-1.431,1.202c-1.105,0.456-2.601,0.716-4.193,0.716
	s-3.088-0.26-4.194-0.716c-0.877-0.357-1.43-0.845-1.43-1.202v-3.674H18.474z M18.474,25.753c0-0.39,0.553-0.845,1.43-1.203
	c1.105-0.455,2.601-0.715,4.194-0.715c0.65,0,1.268,0.032,1.853,0.13c0.455,0.065,0.91,0.163,1.333,0.26
	c0.357,0.098,0.683,0.195,1.008,0.325c0.878,0.358,1.431,0.846,1.431,1.203c0,0.163-0.131,0.357-0.325,0.553
	c-0.261,0.228-0.618,0.455-1.105,0.649c-0.163,0.066-0.325,0.131-0.487,0.163c-1.041,0.358-2.341,0.521-3.707,0.521
	c-1.593,0-3.088-0.26-4.194-0.715C19.027,26.598,18.474,26.143,18.474,25.753z"/>
<path fill="#FFFFFF" stroke="#FFFFFF" stroke-width="0.3" d="M24.033,25.2c-0.748,0-1.365,0.228-1.365,0.553
	c0,0.292,0.618,0.553,1.365,0.553c0.748,0,1.366-0.228,1.366-0.553C25.366,25.46,24.781,25.2,24.033,25.2z"/>
<path fill="#FFFFFF" stroke="#FFFFFF" stroke-width="0.3" d="M22.245,21.006c-0.033-0.26,0-0.553-0.033-0.813v-0.033H22.18v-0.91
	c0-0.975-0.813-1.853-2.243-2.438c-0.455-0.195-0.976-0.357-1.496-0.455l-1.365-0.26C16.491,16.033,15.873,16,15.223,16
	c-1.755,0-3.413,0.292-4.681,0.813c-1.43,0.585-2.243,1.463-2.243,2.438v5.624c0,0.976,0.813,1.854,2.243,2.438
	c1.268,0.521,2.926,0.813,4.681,0.813c0.846,0,1.658-0.066,2.438-0.195c0-0.455-0.032-0.879-0.065-1.334
	c-0.748,0.131-1.528,0.195-2.374,0.195c-1.593,0-3.088-0.26-4.193-0.715c-0.878-0.357-1.431-0.845-1.431-1.203v-3.673
	c0.26,0.163,0.585,0.325,0.91,0.455c1.268,0.52,2.926,0.813,4.682,0.813s3.414-0.292,4.681-0.813c0.325-0.13,0.618-0.26,0.846-0.423
	c0.032,0,0.032-0.032,0.065-0.032v2.243c0.422-0.163,0.877-0.292,1.333-0.358v-1.56c0.032,0,0.097,0,0.13,0
	C22.278,21.332,22.278,21.169,22.245,21.006z M20.489,19.804c-0.26,0.228-0.618,0.455-1.105,0.65
	c-0.163,0.065-0.325,0.13-0.488,0.163c-1.04,0.358-2.341,0.521-3.706,0.521c-1.593,0-3.088-0.26-4.194-0.715
	c-0.877-0.357-1.43-0.845-1.43-1.203c0-0.39,0.553-0.845,1.43-1.203c1.105-0.455,2.601-0.715,4.194-0.715
	c0.65,0,1.268,0.033,1.853,0.13c0.455,0.065,0.91,0.163,1.333,0.26c0.357,0.098,0.683,0.195,1.008,0.325
	c0.878,0.357,1.43,0.845,1.43,1.203C20.847,19.414,20.717,19.608,20.489,19.804z"/>
<path fill="#FFFFFF" stroke="#FFFFFF" stroke-width="0.3" d="M15.19,18.698c-0.748,0-1.365,0.228-1.365,0.553
	c0,0.292,0.618,0.553,1.365,0.553c0.748,0,1.366-0.228,1.366-0.553C16.523,18.926,15.938,18.698,15.19,18.698z"/>
</svg>
