<svg width="30" height="30" viewBox="0 0 30 30" fill="none" xmlns="http://www.w3.org/2000/svg">
<circle cx="15" cy="15" r="15" fill="white"/>
<path d="M23.0877 13.35H22.3958C22.5106 13.022 22.5752 12.6755 22.5752 12.325C22.5752 10.7137 21.3298 9.38833 19.7513 9.2602C19.166 8.59908 18.3409 8.22495 17.4502 8.22495C16.5595 8.22495 15.7343 8.59908 15.1491 9.2602C14.4572 9.31658 13.8371 9.61178 13.3502 10.0515V7.71245C13.3502 7.42955 13.1206 7.19995 12.8377 7.19995C11.3402 7.19995 10.0261 8.14603 9.5044 9.4898C9.49825 9.4898 9.4921 9.4857 9.48595 9.4857C9.33015 9.5103 9.21842 9.54105 9.12207 9.63843C8.12577 10.644 7.97715 12.1743 8.6516 13.35H7.7127C7.4298 13.35 7.2002 13.5796 7.2002 13.8625C7.2002 17.001 9.24507 19.8208 12.3252 20.9893V22.0625C12.3252 22.3454 12.5548 22.575 12.8377 22.575H17.9627C18.2456 22.575 18.4752 22.3454 18.4752 22.0625V20.9893C21.5553 19.8208 23.6002 17 23.6002 13.8625C23.6002 13.5796 23.3706 13.35 23.0877 13.35ZM15.4002 10.275C15.5611 10.275 15.7128 10.2001 15.8092 10.071C16.5953 9.02753 18.305 9.02753 19.0902 10.071C19.1876 10.2001 19.3393 10.275 19.5002 10.275C20.6308 10.275 21.5502 11.1944 21.5502 12.325C21.5502 12.6909 21.4303 13.0394 21.2478 13.35H18.9877L19.8077 12.735C20.0342 12.5648 20.0803 12.244 19.9102 12.0175C19.74 11.7909 19.4192 11.7428 19.1927 11.9139L17.9627 12.8364V11.8114C17.9627 11.5296 17.7331 11.3 17.4502 11.3C17.1673 11.3 16.9377 11.5296 16.9377 11.8125V12.8375L15.7077 11.915C15.4812 11.7458 15.1603 11.792 14.9902 12.0175C14.82 12.244 14.8662 12.5648 15.0927 12.735L15.9127 13.35H13.6526C13.4701 13.0394 13.3502 12.6909 13.3502 12.325C13.3502 11.1944 14.2696 10.275 15.4002 10.275ZM12.3252 8.27723V12.1128L10.3654 10.153C10.6011 9.20485 11.3719 8.473 12.3252 8.27723ZM9.53412 10.7711L12.113 13.35H9.94925C9.91645 13.3223 9.88262 13.2987 9.84982 13.2659C9.18152 12.5904 9.07595 11.5593 9.53412 10.7711ZM17.8018 20.1406C17.5927 20.2093 17.4502 20.4061 17.4502 20.6275V21.55H13.3502V20.6275C13.3502 20.4061 13.2077 20.2103 12.9986 20.1406C10.3182 19.256 8.463 16.9785 8.24672 14.375H22.5537C22.3374 16.9785 20.4821 19.256 17.8018 20.1406Z" fill="#F3392D"/>
</svg>
