<?xml version="1.0" encoding="utf-8"?>
<!-- Generator: Adobe Illustrator 16.0.0, SVG Export Plug-In . SVG Version: 6.00 Build 0)  -->
<!DOCTYPE svg PUBLIC "-//W3C//DTD SVG 1.1//EN" "http://www.w3.org/Graphics/SVG/1.1/DTD/svg11.dtd">
<svg version="1.1" id="Layer_1" xmlns="http://www.w3.org/2000/svg" xmlns:xlink="http://www.w3.org/1999/xlink" x="0px" y="0px"
	 width="50px" height="50px" viewBox="0 0 50 50" enable-background="new 0 0 50 50" xml:space="preserve">
<circle fill="#F3392D" cx="25" cy="25" r="25"/>
<path fill="#FFFFFF" d="M38.479,22.25h-1.152c0.191-0.547,0.299-1.124,0.299-1.708c0-2.686-2.076-4.894-4.707-5.108
	c-0.975-1.102-2.35-1.725-3.834-1.725c-1.485,0-2.86,0.624-3.836,1.725c-1.153,0.094-2.187,0.586-2.998,1.319v-3.898
	c0-0.471-0.383-0.854-0.854-0.854c-2.496,0-4.686,1.577-5.556,3.816c-0.01,0-0.021-0.007-0.031-0.007
	c-0.26,0.041-0.446,0.092-0.606,0.254c-1.661,1.676-1.908,4.227-0.784,6.186h-1.565c-0.471,0-0.854,0.383-0.854,0.854
	c0,5.231,3.408,9.931,8.542,11.878v1.789c0,0.471,0.383,0.854,0.854,0.854h8.542c0.472,0,0.854-0.383,0.854-0.854v-1.789
	c5.135-1.947,8.543-6.648,8.543-11.878C39.334,22.633,38.951,22.25,38.479,22.25z M25.666,17.125c0.27,0,0.521-0.125,0.682-0.34
	c1.311-1.739,4.16-1.739,5.469,0c0.162,0.215,0.416,0.34,0.684,0.34c1.885,0,3.416,1.532,3.416,3.417
	c0,0.61-0.199,1.191-0.504,1.708h-3.766l1.366-1.025c0.378-0.284,0.454-0.818,0.171-1.196s-0.818-0.458-1.196-0.173l-2.05,1.538
	v-1.708c0-0.47-0.383-0.853-0.854-0.853c-0.473,0-0.855,0.382-0.855,0.854v1.708l-2.049-1.538c-0.378-0.282-0.913-0.205-1.196,0.171
	c-0.284,0.377-0.207,0.912,0.171,1.196l1.367,1.025h-3.768c-0.304-0.518-0.504-1.099-0.504-1.708
	C22.25,18.657,23.782,17.125,25.666,17.125z M20.542,13.795v6.393l-3.266-3.266C17.668,15.341,18.953,14.122,20.542,13.795z
	 M15.89,17.952l4.298,4.298h-3.606c-0.054-0.046-0.111-0.085-0.166-0.14C15.302,20.984,15.126,19.266,15.89,17.952z M29.67,33.568
	c-0.35,0.113-0.586,0.441-0.586,0.811v1.537H22.25v-1.537c0-0.369-0.237-0.695-0.586-0.811c-4.467-1.475-7.56-5.271-7.92-9.61
	h23.845C37.229,28.297,34.137,32.094,29.67,33.568z"/>
</svg>
