<svg width="30" height="30" viewBox="0 0 30 30" fill="none" xmlns="http://www.w3.org/2000/svg">
<circle cx="15" cy="15" r="15" fill="white"/>
<path d="M12.006 19.748C12.0044 19.7663 12.0006 19.784 12.0006 19.8029V21.6032C12.0006 22.2652 12.5389 22.8035 13.2008 22.8035H16.8015C17.4634 22.8035 18.0017 22.2652 18.0017 21.6032V19.8029C18.0017 19.784 17.9978 19.7663 17.9963 19.748C20.4757 18.6093 22.2025 16.1041 22.2025 13.2017C22.2025 12.8704 21.9336 12.6016 21.6024 12.6016H18.5901L18.02 11.8889C17.9315 11.7785 17.9315 11.6242 18.0197 11.5139L18.2666 11.205C18.7453 10.6071 18.6975 9.74825 18.1563 9.20704L17.5255 8.5763C17.2911 8.34188 16.9112 8.34188 16.677 8.5763C16.4425 8.81057 16.4425 9.19048 16.677 9.42475L17.3077 10.0555C17.4157 10.1636 17.4253 10.3355 17.3295 10.4552L17.0823 10.764C16.6509 11.3038 16.6446 12.0521 17.0577 12.6013H15.5892L15.0192 11.8886C14.9307 11.7782 14.9307 11.6239 15.0189 11.5136L15.2658 11.2047C15.7444 10.6068 15.6966 9.74796 15.1553 9.20674L14.5247 8.57601C14.2903 8.34159 13.9104 8.34159 13.6761 8.57601C13.4417 8.81028 13.4417 9.19019 13.6761 9.42446L14.3068 10.0552C14.4148 10.1633 14.4245 10.3352 14.3287 10.4549L14.0815 10.7637C13.65 11.3035 13.6437 12.0519 14.0569 12.601H12.5884L12.0183 11.8883C11.9297 11.7779 11.9297 11.6236 12.018 11.5133L12.2649 11.2044C12.7436 10.6064 12.6958 9.74766 12.1544 9.20645L11.5238 8.57572C11.2894 8.3413 10.9095 8.3413 10.6752 8.57572C10.4408 8.80999 10.4408 9.18989 10.6752 9.42417L11.306 10.0549C11.414 10.163 11.4236 10.3349 11.3278 10.4546L11.0806 10.7634C10.6492 11.3032 10.6429 12.0516 11.056 12.6005H8.39992C8.06865 12.6005 7.7998 12.8694 7.7998 13.2007C7.7998 16.1041 9.52659 18.6093 12.006 19.748ZM16.8015 20.403V21.6032H13.2008V20.403H16.8015ZM20.9722 13.8018C20.6704 16.8299 18.1076 19.2028 15.0012 19.2028C11.8947 19.2028 9.33188 16.8299 9.03006 13.8018H20.9722Z" fill="#F3392D"/>
<path d="M14.3067 18.0024C14.5942 18.0024 14.8863 17.9607 15.1754 17.873C15.4924 17.7771 15.6716 17.4419 15.5756 17.1247C15.4795 16.8075 15.1442 16.6284 14.8273 16.7244C13.8776 17.0118 12.87 16.4739 12.5823 15.5236C12.4863 15.2064 12.1508 15.0273 11.8339 15.1233C11.5167 15.2193 11.3376 15.5545 11.4336 15.8717C11.8255 17.1661 13.0189 18.0024 14.3067 18.0024Z" fill="#F3392D"/>
</svg>
