<?xml version="1.0" encoding="utf-8"?>
<!-- Generator: Adobe Illustrator 16.0.0, SVG Export Plug-In . SVG Version: 6.00 Build 0)  -->
<!DOCTYPE svg PUBLIC "-//W3C//DTD SVG 1.1//EN" "http://www.w3.org/Graphics/SVG/1.1/DTD/svg11.dtd">
<svg version="1.1" id="Layer_1" xmlns="http://www.w3.org/2000/svg" xmlns:xlink="http://www.w3.org/1999/xlink" x="0px" y="0px"
	 width="30px" height="30px" viewBox="0 0 30 30" enable-background="new 0 0 30 30" xml:space="preserve">
<circle fill="#45443B" cx="15" cy="15" r="15"/>
<path fill="#E5E4D6" d="M23.587,7.087V6H8.994v1.087h1.097V8.22H8.994v1.087h1.097v3.294H8.959L7.5,16.613h1.354l1.199,7.949h7.946
	l1.199-7.949h1.354l-1.459-4.011h-3.644V9.308h8.138V8.22h-8.138V7.087H23.587z M11.17,10.177v-3.09h1.061v5.515H11.17V10.177z
	 M17.072,23.475H10.98l-1.035-6.861h8.162L17.072,23.475z M19.007,15.525H9.044l0.669-1.835h8.627L19.007,15.525z M14.37,7.149
	v5.453h-1.062V7.087h1.062V7.149z"/>
<path fill="#E5E4D6" d="M14.059,21.84c1.16,0,2.104-0.943,2.104-2.104s-0.944-2.104-2.104-2.104s-2.104,0.943-2.104,2.104
	S12.898,21.84,14.059,21.84z M14.059,18.711c0.565,0,1.025,0.46,1.025,1.025c0,0.564-0.46,1.025-1.025,1.025
	c-0.564,0-1.024-0.461-1.024-1.025C13.034,19.171,13.494,18.711,14.059,18.711z"/>
</svg>
