<?xml version="1.0" encoding="utf-8"?>
<!-- Generator: Adobe Illustrator 16.0.0, SVG Export Plug-In . SVG Version: 6.00 Build 0)  -->
<!DOCTYPE svg PUBLIC "-//W3C//DTD SVG 1.1//EN" "http://www.w3.org/Graphics/SVG/1.1/DTD/svg11.dtd">
<svg version="1.1" id="Layer_1" xmlns="http://www.w3.org/2000/svg" xmlns:xlink="http://www.w3.org/1999/xlink" x="0px" y="0px"
	 width="30px" height="30px" viewBox="0 0 30 30" enable-background="new 0 0 30 30" xml:space="preserve">
<circle fill="#45443B" cx="15" cy="15" r="15"/>
<path fill="#E5E4D6" d="M21.695,7.055V6h-4.998l-0.404,3.132H7.5L8.823,24h10.036l1.324-14.868h-2.826l0.267-2.077H21.695z
	 M16.157,10.187l-0.388,3.005c-0.56-0.104-1.117-0.311-1.67-0.621c-1.731-0.971-3.27-0.917-4.256-0.701
	c-0.396,0.087-0.738,0.207-1.013,0.324l-0.179-2.007H16.157z M9.788,22.945l-0.856-9.632c0.242-0.129,0.652-0.313,1.183-0.423
	c1.159-0.242,2.327-0.041,3.47,0.601c1.131,0.634,2.18,0.832,3.047,0.832c0.459,0,0.867-0.055,1.208-0.131
	c0.326-0.07,0.614-0.164,0.859-0.26l-0.804,9.014H9.788z M19.031,10.187l-0.227,2.533c-0.232,0.129-0.664,0.333-1.236,0.452
	c-0.248,0.052-0.495,0.083-0.744,0.094l0.396-3.079H19.031z"/>
<path fill="#E5E4D6" d="M10.164,20.15l2.3,2.3l2.3-2.3l-2.3-2.299L10.164,20.15z M12.464,20.959l-0.808-0.809l0.808-0.808
	l0.808,0.808L12.464,20.959z"/>
<path fill="#E5E4D6" d="M14.16,18.455h3.252v-3.252H14.16V18.455z M15.214,16.258h1.144V17.4h-1.144V16.258z"/>
</svg>
