<?xml version="1.0" encoding="utf-8"?>
<!-- Generator: Adobe Illustrator 16.0.0, SVG Export Plug-In . SVG Version: 6.00 Build 0)  -->
<!DOCTYPE svg PUBLIC "-//W3C//DTD SVG 1.1//EN" "http://www.w3.org/Graphics/SVG/1.1/DTD/svg11.dtd">
<svg version="1.1" id="Layer_1" xmlns="http://www.w3.org/2000/svg" xmlns:xlink="http://www.w3.org/1999/xlink" x="0px" y="0px"
	 width="50px" height="50px" viewBox="0 0 50 50" enable-background="new 0 0 50 50" xml:space="preserve">
<circle fill="#F3392D" cx="25" cy="25" r="25"/>
<path fill="#FFFFFF" d="M20.01,32.914c-0.002,0.029-0.009,0.06-0.009,0.091v3.001c0,1.104,0.897,2,2,2h6.001
	c1.103,0,2.001-0.896,2.001-2v-3.001c0-0.031-0.008-0.062-0.01-0.091c4.133-1.898,7.01-6.074,7.01-10.911c0-0.552-0.447-1-1-1h-5.02
	l-0.951-1.188c-0.146-0.184-0.146-0.441,0-0.625l0.412-0.515c0.797-0.997,0.717-2.428-0.185-3.33l-1.052-1.051
	c-0.391-0.391-1.023-0.391-1.414,0s-0.391,1.024,0,1.414l1.052,1.051c0.18,0.18,0.196,0.467,0.036,0.666l-0.412,0.515
	c-0.719,0.9-0.729,2.147-0.041,3.063h-2.447l-0.95-1.188c-0.147-0.184-0.147-0.441,0-0.625l0.412-0.515
	c0.798-0.997,0.719-2.428-0.184-3.33l-1.051-1.051c-0.391-0.391-1.024-0.391-1.414,0c-0.391,0.391-0.391,1.023,0,1.414l1.051,1.051
	c0.18,0.18,0.196,0.467,0.036,0.666L23.47,17.94c-0.719,0.899-0.73,2.146-0.041,3.062h-2.448l-0.95-1.188
	c-0.147-0.184-0.147-0.441,0-0.625l0.412-0.515c0.798-0.997,0.718-2.428-0.184-3.33l-1.051-1.051c-0.391-0.391-1.023-0.391-1.414,0
	s-0.391,1.024,0,1.414l1.051,1.051c0.18,0.18,0.196,0.467,0.036,0.666l-0.412,0.515c-0.719,0.9-0.73,2.147-0.042,3.062H14
	c-0.552,0-1,0.448-1,1C13,26.84,15.878,31.016,20.01,32.914z M28.003,34.006v2h-6.001v-2H28.003z M34.954,23.003
	c-0.503,5.047-4.774,9.002-9.952,9.002c-5.177,0-9.448-3.955-9.952-9.002H34.954z"/>
<path fill="#FFFFFF" d="M23.845,30.004c0.479,0,0.966-0.069,1.448-0.215c0.528-0.16,0.827-0.719,0.667-1.248
	s-0.718-0.827-1.247-0.667c-1.583,0.479-3.262-0.417-3.742-2.001c-0.16-0.529-0.719-0.828-1.247-0.667
	c-0.529,0.16-0.827,0.718-0.667,1.248C19.709,28.61,21.698,30.004,23.845,30.004z"/>
</svg>
