<?xml version="1.0" encoding="utf-8"?>
<!-- Generator: Adobe Illustrator 16.0.0, SVG Export Plug-In . SVG Version: 6.00 Build 0)  -->
<!DOCTYPE svg PUBLIC "-//W3C//DTD SVG 1.1//EN" "http://www.w3.org/Graphics/SVG/1.1/DTD/svg11.dtd">
<svg version="1.1" id="Layer_1" xmlns="http://www.w3.org/2000/svg" xmlns:xlink="http://www.w3.org/1999/xlink" x="0px" y="0px"
	 width="30px" height="30px" viewBox="0 0 30 30" enable-background="new 0 0 30 30" xml:space="preserve">
<circle fill="#FFFFFF" cx="15" cy="15" r="15"/>
<path fill="#F3392D" d="M22.475,20h-2.25h-1.025h-6.891h-1.025h-2.25H8.007H7v-4.088h1.389c-0.44-0.582-0.712-1.333-0.712-2.159V8
	h6.058v5.757c0,0.825-0.27,1.577-0.711,2.159h4.234v-0.309c-0.725-0.362-1.348-0.917-1.816-1.624
	c-0.5-0.752-0.787-1.624-0.842-2.538l-0.01-0.004v-1.88h9.246v1.5v0.012c0,0.016,0,0.027,0,0.042c0,1.033-0.294,2.024-0.852,2.865
	c-0.469,0.706-1.092,1.261-1.816,1.623v0.31H24V20h-1.012H22.475z M12.709,13.587h-1.587V12.43h1.587v-1.103h-1.587V10.17h1.587
	V9.157H8.703v4.601c0,1.191,0.859,2.159,1.916,2.159h0.174c1.057,0,1.916-0.967,1.916-2.159V13.587z M22.745,11.833
	c0.044-0.235,0.065-0.475,0.065-0.721v-0.394h-7.188l-0.003,0.394c0,0.243,0.023,0.486,0.064,0.721H22.745z M22.334,12.99h-6.242
	c0.407,0.752,1.053,1.357,1.85,1.677l0.344,0.135v1.11h1.857v-1.11l0.342-0.135C21.281,14.347,21.927,13.742,22.334,12.99z
	 M22.975,17.068H8.025v1.775h11.177h3.772V17.068L22.975,17.068z"/>
</svg>
