<?xml version="1.0" encoding="utf-8"?>
<!-- Generator: Adobe Illustrator 16.0.0, SVG Export Plug-In . SVG Version: 6.00 Build 0)  -->
<!DOCTYPE svg PUBLIC "-//W3C//DTD SVG 1.1//EN" "http://www.w3.org/Graphics/SVG/1.1/DTD/svg11.dtd">
<svg version="1.1" id="Layer_1" xmlns="http://www.w3.org/2000/svg" xmlns:xlink="http://www.w3.org/1999/xlink" x="0px" y="0px"
	 width="50px" height="50px" viewBox="0 0 50 50" enable-background="new 0 0 50 50" xml:space="preserve">
<circle fill="#F3392D" cx="25" cy="25" r="25"/>
<path fill="#FFFFFF" d="M38.406,11.813c0.5,0,0.906-0.406,0.906-0.906S38.906,10,38.406,10H15.897c-0.5,0-0.906,0.406-0.906,0.906
	s0.406,0.906,0.906,0.906h0.921V13.7h-0.921c-0.5,0-0.906,0.406-0.906,0.907c0,0.5,0.406,0.906,0.906,0.906h0.921v5.49h-1.886
	l-1.944,5.344c-0.237,0.652,0.246,1.342,0.939,1.342h0.829l1.87,12.396c0.074,0.49,0.494,0.852,0.989,0.852h11.524
	c0.494,0,0.914-0.361,0.988-0.852l1.869-12.396h0.83c0.693,0,1.177-0.689,0.939-1.342l-1.943-5.344h-6.074v-5.49h12.658
	c0.5,0,0.906-0.406,0.906-0.906c0-0.501-0.406-0.907-0.906-0.907H25.748v-1.888H38.406z M18.617,16.961v-5.149h1.768v9.191h-1.768
	V16.961z M28.453,39.125H18.3l-1.725-11.436h13.603L28.453,39.125z M31.68,25.877H15.074l1.113-3.061h14.379L31.68,25.877z
	 M23.95,11.916v9.088h-1.768v-9.191h1.768V11.916z"/>
<path fill="#FFFFFF" d="M23.432,36.4c1.933,0,3.506-1.573,3.506-3.507c0-1.933-1.573-3.506-3.506-3.506
	c-1.934,0-3.506,1.573-3.506,3.506C19.925,34.827,21.498,36.4,23.432,36.4z M23.432,31.186c0.942,0,1.708,0.766,1.708,1.708
	s-0.766,1.708-1.708,1.708c-0.942,0-1.709-0.766-1.709-1.708S22.49,31.186,23.432,31.186z"/>
</svg>
