<?xml version="1.0" encoding="utf-8"?>
<!-- Generator: Adobe Illustrator 16.0.0, SVG Export Plug-In . SVG Version: 6.00 Build 0)  -->
<!DOCTYPE svg PUBLIC "-//W3C//DTD SVG 1.1//EN" "http://www.w3.org/Graphics/SVG/1.1/DTD/svg11.dtd">
<svg version="1.1" id="Layer_1" xmlns="http://www.w3.org/2000/svg" xmlns:xlink="http://www.w3.org/1999/xlink" x="0px" y="0px"
	 width="30px" height="30px" viewBox="0 0 30 30" enable-background="new 0 0 30 30" xml:space="preserve">
<circle fill="#45443B" cx="15" cy="15" r="15"/>
<path fill="#E5E4D6" d="M22.475,20h-2.25h-1.026h-6.89h-1.026h-2.25H8.006H7v-4.088h1.389c-0.441-0.582-0.712-1.334-0.712-2.159V8
	h6.058v5.757c0,0.825-0.27,1.577-0.711,2.159h4.234v-0.309c-0.725-0.361-1.348-0.918-1.816-1.623
	c-0.5-0.752-0.787-1.624-0.842-2.538l-0.01-0.004V9.562h9.246v1.5v0.012c0,0.016,0,0.027,0,0.042c0,1.033-0.294,2.024-0.852,2.865
	c-0.469,0.706-1.092,1.261-1.816,1.623v0.309H24V20h-1.012H22.475z M12.709,13.587h-1.587v-1.157h1.587v-1.103h-1.587v-1.157h1.587
	V9.157H8.703v4.601c0,1.192,0.859,2.159,1.916,2.159h0.174c1.057,0,1.916-0.967,1.916-2.159V13.587z M22.745,11.833
	c0.044-0.235,0.065-0.475,0.065-0.721v-0.394h-7.188l-0.003,0.394c0,0.243,0.024,0.486,0.065,0.721H22.745z M22.334,12.99h-6.242
	c0.407,0.752,1.053,1.358,1.85,1.677l0.343,0.136v1.109h1.858v-1.109l0.342-0.136C21.281,14.348,21.927,13.742,22.334,12.99z
	 M22.975,17.069H8.025v1.774h11.176h3.773V17.069z"/>
</svg>
